<svg data-v-0dd9719b="" version="1.0"
    xmlns="http://www.w3.org/2000/svg"
    xmlns:xlink="http://www.w3.org/1999/xlink" width="1185" height="256" viewBox="0 0 340.000000 250.000000" preserveAspectRatio="xMidYMid meet" color-interpolation-filters="sRGB" style="margin: auto;">
    
    <rect data-v-0dd9719b="" x="0" y="0" width="100%" height="100%" fill="url(#watermark)" fill-opacity="1" class="watermarklayer"></rect>
    <g data-v-0dd9719b="" fill="#36B82A" class="icon-text-wrapper icon-svg-group iconsvg" transform="translate(-127.3275146484375,62.599998474121094)">
        <g fill="#36B82A" class="iconsvg-imagesvg icon_container" transform="translate(0,0)">
            <rect fill="#36B82A" fill-opacity="0" stroke-width="2" x="0" y="0" width="124.80000000000005" height="124.80000000000005" class="image-rect"></rect>
            <svg viewBox="0 0 60 56.784304818148264" x="0" y="0" width="124.80000000000005" height="124.80000000000005" class="image-svg-svg bn" style="overflow: visible;">
                <g hollow-target="iconBnFill" mask="url(#51632220-134e-48a5-b908-7ba56385efdb)">
                    <g>
                        <svg
                            xmlns="http://www.w3.org/2000/svg" xlink="http://www.w3.org/1999/xlink" viewBox="0.00241 2.9986 1200.62756 1136.28345" style="overflow: visible;" width="60" height="56.784304818148264" x="0" y="0" filtersec="colorsf4869364677">
                            <g transform="scale(1, 1) skewX(0)">
                                <defs>
                                    <radialGradient id="a8fcc32b5-1afd-4f0c-b878-653eb743cd80" cx="587.63" cy="542.4" r="506.64" gradientUnits="userSpaceOnUse">
                                        <stop offset="0" stop-color="#91dfde"></stop>
                                        <stop offset="1" stop-color="#9edee0"></stop>
                                    </radialGradient>
                                    <radialGradient id="b7912e361-f28c-4dd8-a9ac-1e591c683828" cx="587.63" cy="597.41" r="521.36" href="#a8fcc32b5-1afd-4f0c-b878-653eb743cd80"></radialGradient>
                                    <radialGradient id="cb566dd65-8294-40b1-ba5b-f6fb7e68e40b" cx="626.63" cy="555.57" r="519.88" href="#a8fcc32b5-1afd-4f0c-b878-653eb743cd80"></radialGradient>
                                    <radialGradient id="da9a55442-fa18-422b-818e-64e968c77773" cx="587.63" cy="555.57" r="500.02" href="#a8fcc32b5-1afd-4f0c-b878-653eb743cd80"></radialGradient>
                                    <radialGradient id="eb131ebcf-d213-4c6e-9a70-dc6376fd6ff5" cx="576.36" cy="555.62" r="509.1" href="#a8fcc32b5-1afd-4f0c-b878-653eb743cd80"></radialGradient>
                                    <radialGradient id="f543605a5-50bf-4267-adba-9de0fcc7ac84" cx="543.82" cy="554" r="531.1" href="#a8fcc32b5-1afd-4f0c-b878-653eb743cd80"></radialGradient>
                                    <radialGradient id="g07bda3e4-a7d1-45f9-bd03-8e9d6cd7c7e9" cx="549.47" cy="541.07" r="526.48" href="#a8fcc32b5-1afd-4f0c-b878-653eb743cd80"></radialGradient>
                                    <radialGradient id="h9465d821-9f10-4bf9-a489-e5b3ec0ef924" cx="644.13" cy="589.58" r="545.39" href="#a8fcc32b5-1afd-4f0c-b878-653eb743cd80"></radialGradient>
                                </defs>
                                <title>资源 8</title>
                                <path d="M1087.63 555.57c0-216.62-117.85-433.11-336.22-504.06s-441 34.92-568.29 210.16a500 500 0 1 0 904.51 293.9z" opacity=".3" fill="url(#a8fcc32b5-1afd-4f0c-b878-653eb743cd80)"></path>
                                <path d="M1087.63 555.57a500 500 0 1 0-904.51 293.89c127.33 175.24 343.43 349.47 587.76 270.08s316.75-347.36 316.75-563.97z" opacity=".3" fill="url(#b7912e361-f28c-4dd8-a9ac-1e591c683828)"></path>
                                <path d="M1165.63 555.57C1165.63 305.16 948.15 147 742.14 80a500 500 0 1 0 0 951.05c206.01-66.89 423.49-225.05 423.49-475.48z" opacity=".3" fill="url(#cb566dd65-8294-40b1-ba5b-f6fb7e68e40b)"></path>
                                <path d="M1087.63 555.57a500 500 0 1 0-345.49 475.52 500 500 0 0 0 345.49-475.52z" opacity=".3" fill="url(#da9a55442-fa18-422b-818e-64e968c77773)"></path>
                                <path d="M1087.63 555.57A500 500 0 0 0 742.14 80C536.13 13.1 287.72 48 150 237.57s-94.2 436.65 33.12 611.89 352.19 257.25 561.49 189.24 343.02-266.52 343.02-483.13z" opacity=".3" fill="url(#eb131ebcf-d213-4c6e-9a70-dc6376fd6ff5)"></path>
                                <path d="M1087.63 555.57A500 500 0 0 0 742.14 80C536.13 13.1 258.89-.83 107.89 207s-139.31 486.66 8.89 690.65S536.13 1098 742.14 1031.09a500 500 0 0 0 345.49-475.52z" opacity=".3" fill="url(#f543605a5-50bf-4267-adba-9de0fcc7ac84)"></path>
                                <path d="M1087.63 555.57A500 500 0 0 0 742.14 80C536.13 13.1 242.81-28 84.42 190s-28.62 484.26 98.7 659.5a500 500 0 0 0 904.51-293.89z" opacity=".3" fill="url(#g07bda3e4-a7d1-45f9-bd03-8e9d6cd7c7e9)"></path>
                                <path d="M1200.63 555.57C1200.63 290 948.15 147 742.14 80a500 500 0 0 0-559 769.42c127.33 175.24 345.18 331 582.51 253.92s434.98-282.21 434.98-547.77z" opacity=".3" fill="url(#h9465d821-9f10-4bf9-a489-e5b3ec0ef924)"></path>
                                <path d="M1087.63 555.57c0-216.62-94.05-460.08-326-535.45s-423.44 113.22-538 270.94a450 450 0 0 0 503.06 692.48c185.41-60.24 360.94-211.36 360.94-427.97z" fill="none" stroke="#91dfde" stroke-miterlimit="10" stroke-width="6"></path>
                            </g>
                        </svg>
                    </g>
                    <g filter="url(#colors5853884767)">
                        <svg
                            xmlns="http://www.w3.org/2000/svg"
                            xmlns:xlink="http://www.w3.org/1999/xlink" viewBox="0.0031380653381347656 0.00225067138671875 65.81378173828125 52.98568344116211" width="40" height="37.8562" x="10" y="9.464052409074132" class="image-svg-letter">
                            <path transform="translate(-3.793945312500001 48.251682692307696)" d="M19.90-42.75L19.48-44.86Q18.35-48.80 23.20-48.16L23.20-48.16Q26.44-46.55 24.68-42.40L24.68-42.40Q24.47-40.71 26.58-40.71L26.58-40.71L30.94-40.71Q32.34-40.92 33.54-40.01L33.54-40.01Q35.30-36.35 30.59-36.35L30.59-36.35Q29.32-36.35 28.55-34.03L28.55-34.03Q27.91-32.20 27.49-30.38L27.49-30.38Q26.93-28.48 28.97-28.55L28.97-28.55L31.08-28.55Q33.61-27.98 33.89-27.49L33.89-27.49Q35.02-25.17 31.71-24.19L31.71-24.19Q29.95-24.19 26.02-24.47L26.02-24.47Q24.33-24.47 24.05-22.36L24.05-22.36Q23.91-20.04 25.95-20.18L25.95-20.18L30.80-20.46Q34.73-20.95 36.14-20.04L36.14-20.04Q38.39-16.80 33.96-15.75L33.96-15.75L25.88-15.89Q23.98-15.89 23.98-14.27L23.98-14.27L24.05 1.05Q23.91 2.95 22.92 4.08L22.92 4.08Q22.01 5.13 20.88 4.50L20.88 4.50Q19.76 4.01 19.27 1.34L19.27 1.34Q18.84-0.42 18.98-3.59L18.98-3.59Q19.27-8.86 19.27-14.13L19.27-14.13Q19.27-15.75 17.37-15.75L17.37-15.75Q12.73-15.75 8.44-14.63L8.44-14.63Q4.57-13.08 3.80-16.59L3.80-16.59Q3.73-17.65 5.34-19.27L5.34-19.27Q7.31-20.95 9.56-20.32L9.56-20.32Q13.36-19.97 17.37-19.97L17.37-19.97Q19.27-19.97 19.27-21.45L19.27-21.45Q19.34-22.01 19.20-22.78L19.20-22.78Q18.91-24.47 17.23-24.47L17.23-24.47Q15.54-24.68 10.55-23.70L10.55-23.70L8.65-23.70Q5.70-24.61 7.52-27.21L7.52-27.21Q9.63-30.02 13.43-28.90L13.43-28.90Q15.12-28.83 14.48-30.94L14.48-30.94L13.43-33.75Q12.52-35.93 10.55-35.79L10.55-35.79Q8.51-36.21 8.23-36.63L8.23-36.63Q7.24-38.95 10.27-40.71L10.27-40.71Q11.74-41.48 13.29-41.06L13.29-41.06L18.35-40.71Q20.04-40.64 19.90-42.75L19.90-42.75ZM58.36-44.65L58.36-44.65Q60.33-46.20 62.02-43.45L62.02-43.45Q64.20-39.16 59.06-37.90L59.06-37.90Q52.66-36.21 45.14-35.86L45.14-35.86Q42.68-36.63 42.75-33.96L42.75-33.96L43.03-28.97Q43.10-27.21 45.28-27.28L45.28-27.28Q56.81-28.55 68.13-26.65L68.13-26.65Q71.02-26.23 68.27-23.20L68.27-23.20Q66.02-19.97 62.72-22.01L62.72-22.01Q60.89-22.71 58.99-23.13L58.99-23.13Q57.45-23.27 57.30-20.95L57.30-20.95Q57.16-10.76 57.23-0.35L57.23-0.35L56.88 2.46Q56.88 3.80 55.27 4.64L55.27 4.64Q53.51 5.06 52.66 2.74L52.66 2.74Q51.89 0.14 52.03-3.30L52.03-3.30Q52.59-11.39 52.38-21.09L52.38-21.09Q52.17-23.41 49.99-23.41L49.99-23.41Q47.81-23.20 44.79-22.15L44.79-22.15Q43.10-21.52 42.96-19.34L42.96-19.34Q41.98-9.91 37.90-3.02L37.90-3.02Q34.95 1.27 31.15 0.77L31.15 0.77Q26.93-0.49 30.30-3.94L30.30-3.94Q33.68-6.82 35.09-9.35L35.09-9.35Q39.09-16.88 38.60-27.70L38.60-27.70Q37.90-33.75 37.83-35.86L37.83-35.86Q37.97-38.53 41.48-39.52L41.48-39.52Q49.36-38.88 58.36-44.65ZM24.05-34.73L24.05-34.73Q23.91-36.49 21.80-36.56L21.80-36.56L19.76-36.49Q18.07-36.35 18.14-34.24L18.14-34.24L18.63-30.16Q18.63-28.48 20.32-28.48L20.32-28.48L21.80-28.48Q23.55-28.48 23.84-30.66L23.84-30.66Q24.12-32.70 24.05-34.73ZM25.88-14.27L25.88-14.27Q29.53-15.96 30.94-12.80L30.94-12.80Q31.43-10.69 31.92-9.98L31.92-9.98Q33.33-8.44 32.55-6.89L32.55-6.89Q31.15-5.48 28.69-8.51L28.69-8.51Q27.28-9.84 25.88-10.69L25.88-10.69Q23.77-12.23 25.88-14.27ZM11.53-12.02L11.53-12.02Q13.08-15.12 15.26-13.43L15.26-13.43Q18.42-9.49 15.19-7.52L15.19-7.52Q10.41-3.38 6.75-1.13L6.75-1.13Q6.05-0.70 5.06-1.13L5.06-1.13Q3.94-2.39 5.34-3.59L5.34-3.59Q7.45-5.84 11.53-12.02Z"></path>
                        </svg>
                    </g>
                </g>
                <mask id="51632220-134e-48a5-b908-7ba56385efdb">
                    <g fill="white">
                        <svg
                            xmlns="http://www.w3.org/2000/svg" xlink="http://www.w3.org/1999/xlink" viewBox="0.00241 2.9986 1200.62756 1136.28345" style="overflow: visible;" width="60" height="56.784304818148264" x="0" y="0" filtersec="colorsf4869364677">
                            <g transform="scale(1, 1) skewX(0)">
                                <defs>
                                    <radialGradient id="a8fcc32b5-1afd-4f0c-b878-653eb743cd80" cx="587.63" cy="542.4" r="506.64" gradientUnits="userSpaceOnUse">
                                        <stop offset="0" stop-color="#91dfde"></stop>
                                        <stop offset="1" stop-color="#9edee0"></stop>
                                    </radialGradient>
                                    <radialGradient id="b7912e361-f28c-4dd8-a9ac-1e591c683828" cx="587.63" cy="597.41" r="521.36" href="#a8fcc32b5-1afd-4f0c-b878-653eb743cd80"></radialGradient>
                                    <radialGradient id="cb566dd65-8294-40b1-ba5b-f6fb7e68e40b" cx="626.63" cy="555.57" r="519.88" href="#a8fcc32b5-1afd-4f0c-b878-653eb743cd80"></radialGradient>
                                    <radialGradient id="da9a55442-fa18-422b-818e-64e968c77773" cx="587.63" cy="555.57" r="500.02" href="#a8fcc32b5-1afd-4f0c-b878-653eb743cd80"></radialGradient>
                                    <radialGradient id="eb131ebcf-d213-4c6e-9a70-dc6376fd6ff5" cx="576.36" cy="555.62" r="509.1" href="#a8fcc32b5-1afd-4f0c-b878-653eb743cd80"></radialGradient>
                                    <radialGradient id="f543605a5-50bf-4267-adba-9de0fcc7ac84" cx="543.82" cy="554" r="531.1" href="#a8fcc32b5-1afd-4f0c-b878-653eb743cd80"></radialGradient>
                                    <radialGradient id="g07bda3e4-a7d1-45f9-bd03-8e9d6cd7c7e9" cx="549.47" cy="541.07" r="526.48" href="#a8fcc32b5-1afd-4f0c-b878-653eb743cd80"></radialGradient>
                                    <radialGradient id="h9465d821-9f10-4bf9-a489-e5b3ec0ef924" cx="644.13" cy="589.58" r="545.39" href="#a8fcc32b5-1afd-4f0c-b878-653eb743cd80"></radialGradient>
                                </defs>
                                <title>资源 8</title>
                                <path d="M1087.63 555.57c0-216.62-117.85-433.11-336.22-504.06s-441 34.92-568.29 210.16a500 500 0 1 0 904.51 293.9z"></path>
                                <path d="M1087.63 555.57a500 500 0 1 0-904.51 293.89c127.33 175.24 343.43 349.47 587.76 270.08s316.75-347.36 316.75-563.97z"></path>
                                <path d="M1165.63 555.57C1165.63 305.16 948.15 147 742.14 80a500 500 0 1 0 0 951.05c206.01-66.89 423.49-225.05 423.49-475.48z"></path>
                                <path d="M1087.63 555.57a500 500 0 1 0-345.49 475.52 500 500 0 0 0 345.49-475.52z"></path>
                                <path d="M1087.63 555.57A500 500 0 0 0 742.14 80C536.13 13.1 287.72 48 150 237.57s-94.2 436.65 33.12 611.89 352.19 257.25 561.49 189.24 343.02-266.52 343.02-483.13z"></path>
                                <path d="M1087.63 555.57A500 500 0 0 0 742.14 80C536.13 13.1 258.89-.83 107.89 207s-139.31 486.66 8.89 690.65S536.13 1098 742.14 1031.09a500 500 0 0 0 345.49-475.52z"></path>
                                <path d="M1087.63 555.57A500 500 0 0 0 742.14 80C536.13 13.1 242.81-28 84.42 190s-28.62 484.26 98.7 659.5a500 500 0 0 0 904.51-293.89z"></path>
                                <path d="M1200.63 555.57C1200.63 290 948.15 147 742.14 80a500 500 0 0 0-559 769.42c127.33 175.24 345.18 331 582.51 253.92s434.98-282.21 434.98-547.77z"></path>
                                <path d="M1087.63 555.57c0-216.62-94.05-460.08-326-535.45s-423.44 113.22-538 270.94a450 450 0 0 0 503.06 692.48c185.41-60.24 360.94-211.36 360.94-427.97z" fill="none" stroke="white" stroke-miterlimit="10" stroke-width="6"></path>
                            </g>
                        </svg>
                    </g>
                    <g fill="black">
                        <svg
                            xmlns="http://www.w3.org/2000/svg"
                            xmlns:xlink="http://www.w3.org/1999/xlink" viewBox="0.0031380653381347656 0.00225067138671875 65.81378173828125 52.98568344116211" width="40" height="37.8562" x="10" y="9.464052409074132" class="image-svg-letter">
                            <path transform="translate(-3.793945312500001 48.251682692307696)" d="M19.90-42.75L19.48-44.86Q18.35-48.80 23.20-48.16L23.20-48.16Q26.44-46.55 24.68-42.40L24.68-42.40Q24.47-40.71 26.58-40.71L26.58-40.71L30.94-40.71Q32.34-40.92 33.54-40.01L33.54-40.01Q35.30-36.35 30.59-36.35L30.59-36.35Q29.32-36.35 28.55-34.03L28.55-34.03Q27.91-32.20 27.49-30.38L27.49-30.38Q26.93-28.48 28.97-28.55L28.97-28.55L31.08-28.55Q33.61-27.98 33.89-27.49L33.89-27.49Q35.02-25.17 31.71-24.19L31.71-24.19Q29.95-24.19 26.02-24.47L26.02-24.47Q24.33-24.47 24.05-22.36L24.05-22.36Q23.91-20.04 25.95-20.18L25.95-20.18L30.80-20.46Q34.73-20.95 36.14-20.04L36.14-20.04Q38.39-16.80 33.96-15.75L33.96-15.75L25.88-15.89Q23.98-15.89 23.98-14.27L23.98-14.27L24.05 1.05Q23.91 2.95 22.92 4.08L22.92 4.08Q22.01 5.13 20.88 4.50L20.88 4.50Q19.76 4.01 19.27 1.34L19.27 1.34Q18.84-0.42 18.98-3.59L18.98-3.59Q19.27-8.86 19.27-14.13L19.27-14.13Q19.27-15.75 17.37-15.75L17.37-15.75Q12.73-15.75 8.44-14.63L8.44-14.63Q4.57-13.08 3.80-16.59L3.80-16.59Q3.73-17.65 5.34-19.27L5.34-19.27Q7.31-20.95 9.56-20.32L9.56-20.32Q13.36-19.97 17.37-19.97L17.37-19.97Q19.27-19.97 19.27-21.45L19.27-21.45Q19.34-22.01 19.20-22.78L19.20-22.78Q18.91-24.47 17.23-24.47L17.23-24.47Q15.54-24.68 10.55-23.70L10.55-23.70L8.65-23.70Q5.70-24.61 7.52-27.21L7.52-27.21Q9.63-30.02 13.43-28.90L13.43-28.90Q15.12-28.83 14.48-30.94L14.48-30.94L13.43-33.75Q12.52-35.93 10.55-35.79L10.55-35.79Q8.51-36.21 8.23-36.63L8.23-36.63Q7.24-38.95 10.27-40.71L10.27-40.71Q11.74-41.48 13.29-41.06L13.29-41.06L18.35-40.71Q20.04-40.64 19.90-42.75L19.90-42.75ZM58.36-44.65L58.36-44.65Q60.33-46.20 62.02-43.45L62.02-43.45Q64.20-39.16 59.06-37.90L59.06-37.90Q52.66-36.21 45.14-35.86L45.14-35.86Q42.68-36.63 42.75-33.96L42.75-33.96L43.03-28.97Q43.10-27.21 45.28-27.28L45.28-27.28Q56.81-28.55 68.13-26.65L68.13-26.65Q71.02-26.23 68.27-23.20L68.27-23.20Q66.02-19.97 62.72-22.01L62.72-22.01Q60.89-22.71 58.99-23.13L58.99-23.13Q57.45-23.27 57.30-20.95L57.30-20.95Q57.16-10.76 57.23-0.35L57.23-0.35L56.88 2.46Q56.88 3.80 55.27 4.64L55.27 4.64Q53.51 5.06 52.66 2.74L52.66 2.74Q51.89 0.14 52.03-3.30L52.03-3.30Q52.59-11.39 52.38-21.09L52.38-21.09Q52.17-23.41 49.99-23.41L49.99-23.41Q47.81-23.20 44.79-22.15L44.79-22.15Q43.10-21.52 42.96-19.34L42.96-19.34Q41.98-9.91 37.90-3.02L37.90-3.02Q34.95 1.27 31.15 0.77L31.15 0.77Q26.93-0.49 30.30-3.94L30.30-3.94Q33.68-6.82 35.09-9.35L35.09-9.35Q39.09-16.88 38.60-27.70L38.60-27.70Q37.90-33.75 37.83-35.86L37.83-35.86Q37.97-38.53 41.48-39.52L41.48-39.52Q49.36-38.88 58.36-44.65ZM24.05-34.73L24.05-34.73Q23.91-36.49 21.80-36.56L21.80-36.56L19.76-36.49Q18.07-36.35 18.14-34.24L18.14-34.24L18.63-30.16Q18.63-28.48 20.32-28.48L20.32-28.48L21.80-28.48Q23.55-28.48 23.84-30.66L23.84-30.66Q24.12-32.70 24.05-34.73ZM25.88-14.27L25.88-14.27Q29.53-15.96 30.94-12.80L30.94-12.80Q31.43-10.69 31.92-9.98L31.92-9.98Q33.33-8.44 32.55-6.89L32.55-6.89Q31.15-5.48 28.69-8.51L28.69-8.51Q27.28-9.84 25.88-10.69L25.88-10.69Q23.77-12.23 25.88-14.27ZM11.53-12.02L11.53-12.02Q13.08-15.12 15.26-13.43L15.26-13.43Q18.42-9.49 15.19-7.52L15.19-7.52Q10.41-3.38 6.75-1.13L6.75-1.13Q6.05-0.70 5.06-1.13L5.06-1.13Q3.94-2.39 5.34-3.59L5.34-3.59Q7.45-5.84 11.53-12.02Z"></path>
                        </svg>
                    </g>
                </mask>
            </svg>
            <defs>
                <filter id="colors5853884767">
                    <feColorMatrix type="matrix" values="0 0 0 0 0.19921875  0 0 0 0 0.19921875  0 0 0 0 0.19921875  0 0 0 1 0" class="icon-fecolormatrix"></feColorMatrix>
                </filter>
                <filter id="colorsf4869364677">
                    <feColorMatrix type="matrix" values="0 0 0 0 0.99609375  0 0 0 0 0.99609375  0 0 0 0 0.99609375  0 0 0 1 0" class="icon-fecolormatrix"></feColorMatrix>
                </filter>
                <filter id="colorsb2273609430">
                    <feColorMatrix type="matrix" values="0 0 0 0 0  0 0 0 0 0  0 0 0 0 0  0 0 0 1 0" class="icon-fecolormatrix"></feColorMatrix>
                </filter>
            </defs>
        </g>
        <g transform="translate(136.8000030517578,14.3614501953125)">
            <g data-gra="path-name" fill-rule="" class="tp-name iconsvg-namesvg" transform="translate(0,0)" fill="url(#a2d51929-9f26-48d1-b8db-7846b3dd33b5)">
                <g transform="scale(2.0400000000000005)">
                    <g>
                        <path d="M20.61-29.53L20.61-29.53Q27.29-30.06 32.21-29.53L32.21-29.53Q33.62-28.92 33.97-27.73L33.97-27.73Q34.37-25.84 31.42-24.26L31.42-24.26Q30.1-23.2 31.33-23.16L31.33-23.16Q34.1-23.07 35.68-22.63L35.68-22.63Q36.61-22.28 37-21.18L37-21.18Q37.18-20.35 37.13-19.51L37.13-19.51Q36.83-17.89 37.05-15.69L37.05-15.69Q37.44-9.01 36.96-6.37L36.96-6.37Q36.12-4.35 34.76-5.32L34.76-5.32Q34.23-5.76 34.23-7.21L34.23-7.21Q34.15-8.35 34.19-9.67L34.19-9.67Q34.19-10.72 32.87-10.9L32.87-10.9Q31.07-11.03 29.27-10.99L29.27-10.99Q28.17-10.99 28.17-9.93L28.17-9.93Q28.3-7.51 27.73-5.45L27.73-5.45Q27.33-4.79 26.81-4.79L26.81-4.79Q25.97-4.79 25.53-5.67L25.53-5.67Q25.22-7.08 25.09-9.84L25.09-9.84Q25.09-10.94 24.04-10.94L24.04-10.94Q22.15-10.94 20.21-10.81L20.21-10.81Q19.07-10.72 19.07-9.45L19.07-9.45 18.94-7.51Q18.72-5.49 16.96-5.76L16.96-5.76Q16.17-6.33 16.13-7.25L16.13-7.25Q15.95-11.12 16.52-20.21L16.52-20.21Q16.52-21.18 16.83-22.15L16.83-22.15Q17.31-22.94 18.33-22.98L18.33-22.98Q20.26-23.29 22.37-23.2L22.37-23.2Q23.42-23.2 22.19-24.26L22.19-24.26Q21.53-24.65 20.87-24.74L20.87-24.74Q18.28-25.75 18.54-27.82L18.54-27.82Q19.12-29.31 20.61-29.53ZM6.06-26.85L6.06-26.85Q8.04-28.83 9.89-27.07L9.89-27.07Q10.99-25.84 11.91-25.27L11.91-25.27Q13.23-24.35 12.08-22.9L12.08-22.9Q11.21-22.63 10.02-23.38L10.02-23.38Q8.31-23.99 6.59-24.48L6.59-24.48Q4.75-25.22 6.06-26.85ZM28.96-27.47L28.96-27.47Q26.76-27.69 24.08-27.33L24.08-27.33Q22.85-27.11 24.08-26.19L24.08-26.19 25.31-25.22Q26.59-24.13 26.81-24.13L26.81-24.13Q28.56-25.05 29.49-26.1L29.49-26.1Q30.28-27.16 28.96-27.47ZM3.12-19.34L3.12-19.34Q5.01-22.28 7.6-20.08L7.6-20.08 9.36-18.98Q11.03-18.11 10.11-16.7L10.11-16.7Q9.93-16.48 8.26-16.66L8.26-16.66Q6.94-17.05 4.75-17.27L4.75-17.27Q2.59-17.53 3.12-19.34ZM23.64-20.57L23.64-20.57Q22.1-20.43 20.7-20.13L20.7-20.13Q19.64-19.78 19.42-19.07L19.42-19.07Q19.34-18.33 20.65-18.28L20.65-18.28 24.08-18.24Q25.18-18.24 25.14-19.42L25.14-19.42Q24.96-20.65 23.64-20.57ZM32.52-20.39L32.52-20.39Q30.94-20.74 29.36-20.74L29.36-20.74Q28.26-20.74 28.13-19.56L28.13-19.56Q28.08-18.28 29.4-18.33L29.4-18.33Q30.98-18.41 32.7-18.37L32.7-18.37Q34.01-18.41 33.97-19.12L33.97-19.12Q33.84-19.86 32.52-20.39ZM25.18-14.55L25.18-14.55Q25.18-15.47 24.13-15.47L24.13-15.47Q22.24-15.47 20.3-15.34L20.3-15.34Q19.25-15.29 19.2-14.63L19.2-14.63Q19.16-13.84 20.39-13.75L20.39-13.75 24.08-13.67Q25.18-13.67 25.18-14.55ZM33.13-15.47L33.13-15.47 29.22-15.56Q28.13-15.56 28.13-14.68L28.13-14.68Q28.13-13.71 29.44-13.75L29.44-13.75 32.65-13.8Q34.19-13.84 34.19-14.55L34.19-14.55Q34.19-15.29 33.13-15.47ZM4.22-13.71L4.22-13.71Q5.01-14.06 5.98-13.49L5.98-13.49Q7.47-12.7 8.96-11.78L8.96-11.78 10.37-11.51Q12.92-10.72 10.37-7.6L10.37-7.6Q9.54-6.81 8.83-5.89L8.83-5.89Q8.31-5.23 8.48-4.88L8.48-4.88Q8.61-4.7 9.93-4.88L9.93-4.88Q18.94-5.05 32.56-2.59L32.56-2.59Q37.18-1.98 42.67-2.02L42.67-2.02Q44.69-1.45 43.07 0.18L43.07 0.18Q39.2 3.08 36.04 2.46L36.04 2.46Q27.42-0.62 21.97-1.54L21.97-1.54Q16.66-2.5 7.65-1.71L7.65-1.71Q4.39-2.2 5.19-4.92L5.19-4.92Q5.93-6.77 7.25-8.44L7.25-8.44Q8.22-9.54 6.86-9.67L6.86-9.67Q4.31-10.15 2.86-11.12L2.86-11.12Q1.85-12.61 4.22-13.71ZM52.08-27.77L52.08-27.77Q54.1-29.93 55.99-29.22L55.99-29.22Q58.36-28.39 61.26-28.26L61.26-28.26Q62.31-28.21 63.02-27.95L63.02-27.95Q64.82-27.38 63.98-25.93L63.98-25.93Q62.71-24.96 60.21-25.36L60.21-25.36Q57.04-25.58 53.83-25.62L53.83-25.62Q50.84-25.66 52.08-27.77ZM71.63-29.14L71.63-29.14Q72.82-29.4 75.81-28.96L75.81-28.96Q78.97-29.05 82.31-29L82.31-29Q84.29-28.74 83.63-26.89L83.63-26.89Q82.92-25.58 81.21-25.84L81.21-25.84Q75.81-26.19 72.2-25.44L72.2-25.44Q70.93-25.18 70.18-25.62L70.18-25.62Q69.04-26.24 70-27.86L70-27.86Q70.8-28.7 71.63-29.14ZM50.63-20.52L50.63-20.52Q52.21-21.49 55.24-20.7L55.24-20.7 58.75-20.39Q60.78-20.43 61.79-19.78L61.79-19.78Q62.49-19.29 62.36-18.41L62.36-18.41Q62.09-17.53 62.01-16.66L62.01-16.66Q61.74-12.44 60.82-9.62L60.82-9.62Q59.41-5.93 56.12-2.59L56.12-2.59Q53.75-0.22 52.47 0.22L52.47 0.22Q51.5 0.7 50.71 0L50.71 0Q49.48-1.23 50.36-2.64L50.36-2.64Q52.08-4.26 53.96-5.89L53.96-5.89Q59.5-10.5 59.06-15.78L59.06-15.78Q58.97-17.18 58.4-17.53L58.4-17.53Q55.72-18.19 53.04-17.4L53.04-17.4Q52.12-17.05 50.67-17.36L50.67-17.36Q47.64-18.76 50.63-20.52ZM66.27-20.13L69.43-20.26Q78.4-21.01 88.99-19.42L88.99-19.42Q90.83-18.72 88.11-16.26L88.11-16.26Q87.23-15.47 86.35-15.69L86.35-15.69Q83.28-16.92 81.12-17.4L81.12-17.4Q79.89-17.58 79.8-16.61L79.8-16.61Q79.5-14.9 79.58-13.32L79.58-13.32Q80.16-6.2 79.89-0.44L79.89-0.44Q80.16 1.98 78.35 2.64L78.35 2.64Q76.38 2.5 76.33 0.44L76.33 0.44Q76.55-8.53 76.42-16.61L76.42-16.61Q76.38-17.8 75.37-17.8L75.37-17.8Q71.06-17.89 67.5-16.52L67.5-16.52Q66.36-15.91 65.26-16.3L65.26-16.3Q64.07-16.96 64.47-18.28L64.47-18.28Q64.82-19.38 66.27-20.13L66.27-20.13ZM93.08-13.97L93.08-13.97Q95.01-15.25 97.82-15.12L97.82-15.12Q113.73-15.21 127.92-14.41L127.92-14.41Q130.21-14.28 132.63-14.33L132.63-14.33Q133.55-14.11 133.59-13.54L133.59-13.54Q133.59-12.74 132.23-11.25L132.23-11.25Q130.12-8.48 127.88-9.76L127.88-9.76Q124.72-11.03 120.85-11.56L120.85-11.56Q107.53-12.92 95.14-10.55L95.14-10.55Q93.12-10.06 92.2-11.47L92.2-11.47Q91.67-12.66 93.08-13.97ZM153.72-30.23L153.72-30.23Q154.91-30.81 155.79-30.1L155.79-30.1Q157.41-29.14 157.1-27.11L157.1-27.11 157.1-26.41Q157.1-25.36 158.42-25.4L158.42-25.4Q161.94-25.58 165.59-25.4L165.59-25.4Q167.56-25.36 167.08-23.69L167.08-23.69Q166.42-21.58 164-22.1L164-22.1Q161.67-22.68 158.33-22.37L158.33-22.37Q157.28-22.15 157.24-20.83L157.24-20.83Q157.24-19.6 157.06-18.24L157.06-18.24Q157.02-17.18 158.07-17.18L158.07-17.18Q166.2-16.83 176.31-15.38L176.31-15.38Q177.8-15.12 178.07-14.81L178.07-14.81Q178.29-13.71 177.28-12.74L177.28-12.74Q175.39-10.15 172.97-11.56L172.97-11.56Q165.23-14.59 158.25-14.46L158.25-14.46Q157.15-14.46 157.15-13.4L157.15-13.4Q157.19-6.59 157.02 0.35L157.02 0.35Q157.1 2.77 155.3 3.47L155.3 3.47Q153.54 3.65 153.19 1.41L153.19 1.41Q153.11 0.18 153.59-2.46L153.59-2.46Q154.29-8.39 153.98-13.4L153.98-13.4Q153.85-14.46 152.8-14.46L152.8-14.46Q146.16-14.37 140.63-11.82L140.63-11.82Q139.7-11.34 138.6-11.69L138.6-11.69Q137.24-12.22 137.5-13.8L137.5-13.8Q138.74-16.79 141.72-16.44L141.72-16.44Q147.35-16.7 152.97-17.14L152.97-17.14Q154.07-17.14 154.07-18.19L154.07-18.19Q154.07-24.04 153.19-28.48L153.19-28.48Q152.75-29.44 153.72-30.23ZM157.72-12.08L157.72-12.08Q159.35-13.01 160.8-12L160.8-12 164.31-9.98Q167.12-8.09 169.58-7.6L169.58-7.6Q171.65-7.12 170.2-5.54L170.2-5.54Q166.68-2.29 164.09-5.67L164.09-5.67Q161.72-9.01 159.21-9.89L159.21-9.89Q158.12-10.15 157.85-10.42L157.85-10.42Q156.97-11.34 157.72-12.08ZM200.61-29.53L200.61-29.53Q207.29-30.06 212.21-29.53L212.21-29.53Q213.62-28.92 213.97-27.73L213.97-27.73Q214.37-25.84 211.42-24.26L211.42-24.26Q210.1-23.2 211.33-23.16L211.33-23.16Q214.1-23.07 215.68-22.63L215.68-22.63Q216.61-22.28 217-21.18L217-21.18Q217.18-20.35 217.13-19.51L217.13-19.51Q216.83-17.89 217.05-15.69L217.05-15.69Q217.44-9.01 216.96-6.37L216.96-6.37Q216.12-4.35 214.76-5.32L214.76-5.32Q214.23-5.76 214.23-7.21L214.23-7.21Q214.15-8.35 214.19-9.67L214.19-9.67Q214.19-10.72 212.87-10.9L212.87-10.9Q211.07-11.03 209.27-10.99L209.27-10.99Q208.17-10.99 208.17-9.93L208.17-9.93Q208.3-7.51 207.73-5.45L207.73-5.45Q207.33-4.79 206.81-4.79L206.81-4.79Q205.97-4.79 205.53-5.67L205.53-5.67Q205.22-7.08 205.09-9.84L205.09-9.84Q205.09-10.94 204.04-10.94L204.04-10.94Q202.15-10.94 200.21-10.81L200.21-10.81Q199.07-10.72 199.07-9.45L199.07-9.45 198.94-7.51Q198.72-5.49 196.96-5.76L196.96-5.76Q196.17-6.33 196.13-7.25L196.13-7.25Q195.95-11.12 196.52-20.21L196.52-20.21Q196.52-21.18 196.83-22.15L196.83-22.15Q197.31-22.94 198.33-22.98L198.33-22.98Q200.26-23.29 202.37-23.2L202.37-23.2Q203.42-23.2 202.19-24.26L202.19-24.26Q201.53-24.65 200.87-24.74L200.87-24.74Q198.28-25.75 198.54-27.82L198.54-27.82Q199.12-29.31 200.61-29.53ZM186.06-26.85L186.06-26.85Q188.04-28.83 189.89-27.07L189.89-27.07Q190.99-25.84 191.91-25.27L191.91-25.27Q193.23-24.35 192.08-22.9L192.08-22.9Q191.21-22.63 190.02-23.38L190.02-23.38Q188.31-23.99 186.59-24.48L186.59-24.48Q184.75-25.22 186.06-26.85ZM208.96-27.47L208.96-27.47Q206.76-27.69 204.08-27.33L204.08-27.33Q202.85-27.11 204.08-26.19L204.08-26.19 205.31-25.22Q206.59-24.13 206.81-24.13L206.81-24.13Q208.56-25.05 209.49-26.1L209.49-26.1Q210.28-27.16 208.96-27.47ZM183.12-19.34L183.12-19.34Q185.01-22.28 187.6-20.08L187.6-20.08 189.36-18.98Q191.03-18.11 190.11-16.7L190.11-16.7Q189.93-16.48 188.26-16.66L188.26-16.66Q186.94-17.05 184.75-17.27L184.75-17.27Q182.59-17.53 183.12-19.34ZM203.64-20.57L203.64-20.57Q202.1-20.43 200.7-20.13L200.7-20.13Q199.64-19.78 199.42-19.07L199.42-19.07Q199.34-18.33 200.65-18.28L200.65-18.28 204.08-18.24Q205.18-18.24 205.14-19.42L205.14-19.42Q204.96-20.65 203.64-20.57ZM212.52-20.39L212.52-20.39Q210.94-20.74 209.36-20.74L209.36-20.74Q208.26-20.74 208.13-19.56L208.13-19.56Q208.08-18.28 209.4-18.33L209.4-18.33Q210.98-18.41 212.7-18.37L212.7-18.37Q214.01-18.41 213.97-19.12L213.97-19.12Q213.84-19.86 212.52-20.39ZM205.18-14.55L205.18-14.55Q205.18-15.47 204.13-15.47L204.13-15.47Q202.24-15.47 200.3-15.34L200.3-15.34Q199.25-15.29 199.2-14.63L199.2-14.63Q199.16-13.84 200.39-13.75L200.39-13.75 204.08-13.67Q205.18-13.67 205.18-14.55ZM213.13-15.47L213.13-15.47 209.22-15.56Q208.13-15.56 208.13-14.68L208.13-14.68Q208.13-13.71 209.44-13.75L209.44-13.75 212.65-13.8Q214.19-13.84 214.19-14.55L214.19-14.55Q214.19-15.29 213.13-15.47ZM184.22-13.71L184.22-13.71Q185.01-14.06 185.98-13.49L185.98-13.49Q187.47-12.7 188.96-11.78L188.96-11.78 190.37-11.51Q192.92-10.72 190.37-7.6L190.37-7.6Q189.54-6.81 188.83-5.89L188.83-5.89Q188.31-5.23 188.48-4.88L188.48-4.88Q188.61-4.7 189.93-4.88L189.93-4.88Q198.94-5.05 212.56-2.59L212.56-2.59Q217.18-1.98 222.67-2.02L222.67-2.02Q224.69-1.45 223.07 0.18L223.07 0.18Q219.2 3.08 216.04 2.46L216.04 2.46Q207.42-0.62 201.97-1.54L201.97-1.54Q196.66-2.5 187.65-1.71L187.65-1.71Q184.39-2.2 185.19-4.92L185.19-4.92Q185.93-6.77 187.25-8.44L187.25-8.44Q188.22-9.54 186.86-9.67L186.86-9.67Q184.31-10.15 182.86-11.12L182.86-11.12Q181.85-12.61 184.22-13.71Z" transform="translate(-2.5581953525543213, 30.490774154663086)"></path>
                    </g>
                    <!---->
                    <!---->
                    <!---->
                    <!---->
                    <!---->
                    <!---->
                    <!---->
                </g>
            </g>
            <g data-gra="path-slogan" fill-rule="" class="tp-slogan iconsvg-slogansvg" fill="url(#f51df68b-e8e8-4b3d-bd58-33356740797d)" transform="translate(-6.5401611328125,75.30729675292969)">
                <!---->
                <!---->
                <g mask="url(#982a40e9-e081-42b7-a175-892a0e454197)">
                    <g>
                        <rect data-gra="graph-name-bg" stroke-width="2" class="i-icon-bg" x="0" y="0" width="464.39520263671875" height="24.76400375366211" fill-opacity="1"></rect>
                        <!---->
                        <!---->
                    </g>
                    <g transform="translate(5,2)">
                        <g transform="scale(1, 1)" fill="#ffffff">
                            <g transform="scale(2.320000000000001)">
                                <path d="M6.56-3.19L6.56-8.58L7.73-8.58L7.73-3.05Q7.59 0.05 4.22 0.14L4.22 0.14Q1.08 0.05 0.94-2.86L0.94-2.86L0.94-8.58L2.11-8.58L2.11-3.19Q2.16-0.84 4.27-0.80L4.27-0.80Q6.56-0.84 6.56-3.19L6.56-3.19ZM12.92-8.58L17.23-1.64L17.23-8.58L18.36-8.58L18.36 0L17.05 0L12.69-6.94L12.64-6.94L12.64 0L11.52 0L11.52-8.58L12.92-8.58ZM22.33-8.58L23.50-8.58L23.50 0L22.33 0L22.33-8.58ZM28.13-8.58L30.56-1.27L33.05-8.58L34.36-8.58L31.22 0L29.95 0L26.81-8.58L28.13-8.58ZM38.75-1.03L43.91-1.03L43.91 0L37.58 0L37.58-8.58L43.81-8.58L43.81-7.59L38.75-7.59L38.75-4.92L43.44-4.92L43.44-3.89L38.75-3.89L38.75-1.03ZM51.53-3.70L48.72-3.70L48.72 0L47.55 0L47.55-8.58L51.53-8.58Q54.39-8.58 54.39-6.28L54.39-6.28Q54.39-4.88 53.17-4.22L53.17-4.22Q54.20-3.94 54.20-2.58L54.20-2.58L54.30-1.03Q54.25-0.38 54.72-0.19L54.72-0.19L54.72 0L53.27 0Q53.13-0.61 53.08-2.16L53.08-2.16Q53.13-3.70 51.53-3.70L51.53-3.70ZM51.63-7.64L48.72-7.64L48.72-4.69L51.44-4.69Q53.17-4.69 53.17-6.19L53.17-6.19Q53.17-7.64 51.63-7.64L51.63-7.64ZM64.31-6.09L64.31-6.09L63.23-6.09Q63.14-7.73 61.08-7.83L61.08-7.83Q59.16-7.78 59.16-6.33L59.16-6.33Q59.16-5.39 60.19-5.25L60.19-5.25L62.63-4.69Q64.55-4.22 64.55-2.34L64.55-2.34Q64.50 0.05 61.17 0.14L61.17 0.14Q59.34 0.14 58.59-0.61L58.59-0.61Q57.66-1.31 57.70-2.77L57.70-2.77L58.83-2.77Q58.88-0.80 61.17-0.75L61.17-0.75Q63.42-0.80 63.47-2.20L63.47-2.20Q63.66-3.38 61.59-3.75L61.59-3.75L59.81-4.13Q57.98-4.64 57.98-6.19L57.98-6.19Q58.13-8.72 60.98-8.81L60.98-8.81Q64.22-8.81 64.31-6.09ZM73.67 0L72.83-2.48L69.36-2.48L68.47 0L67.30 0L70.53-8.58L71.84-8.58L74.94 0L73.67 0ZM71.09-7.31L69.73-3.52L72.41-3.52L71.14-7.31L71.09-7.31ZM77.97-8.58L79.14-8.58L79.14-1.03L83.50-1.03L83.50 0L77.97 0L77.97-8.58ZM97.63 0L96.78-2.48L93.31-2.48L92.42 0L91.25 0L94.48-8.58L95.80-8.58L98.89 0L97.63 0ZM95.05-7.31L93.69-3.52L96.36-3.52L95.09-7.31L95.05-7.31ZM109.09-6.05L109.09-6.05L107.97-6.05Q107.55-7.78 105.58-7.83L105.58-7.83Q102.86-7.69 102.77-4.36L102.77-4.36Q102.77-0.80 105.63-0.80L105.63-0.80Q107.59-0.84 108.06-3.19L108.06-3.19L109.19-3.19Q108.67 0.05 105.39 0.14L105.39 0.14Q101.64 0 101.55-4.31L101.55-4.31Q101.73-8.63 105.58-8.81L105.58-8.81Q108.63-8.72 109.09-6.05ZM119.72-6.05L119.72-6.05L118.59-6.05Q118.17-7.78 116.20-7.83L116.20-7.83Q113.48-7.69 113.39-4.36L113.39-4.36Q113.39-0.80 116.25-0.80L116.25-0.80Q118.22-0.84 118.69-3.19L118.69-3.19L119.81-3.19Q119.30 0.05 116.02 0.14L116.02 0.14Q112.27 0 112.17-4.31L112.17-4.31Q112.36-8.63 116.20-8.81L116.20-8.81Q119.25-8.72 119.72-6.05ZM124.48-1.03L129.64-1.03L129.64 0L123.31 0L123.31-8.58L129.55-8.58L129.55-7.59L124.48-7.59L124.48-4.92L129.17-4.92L129.17-3.89L124.48-3.89L124.48-1.03ZM139.42-6.09L139.42-6.09L138.34-6.09Q138.25-7.73 136.19-7.83L136.19-7.83Q134.27-7.78 134.27-6.33L134.27-6.33Q134.27-5.39 135.30-5.25L135.30-5.25L137.73-4.69Q139.66-4.22 139.66-2.34L139.66-2.34Q139.61 0.05 136.28 0.14L136.28 0.14Q134.45 0.14 133.70-0.61L133.70-0.61Q132.77-1.31 132.81-2.77L132.81-2.77L133.94-2.77Q133.98-0.80 136.28-0.75L136.28-0.75Q138.53-0.80 138.58-2.20L138.58-2.20Q138.77-3.38 136.70-3.75L136.70-3.75L134.92-4.13Q133.09-4.64 133.09-6.19L133.09-6.19Q133.23-8.72 136.09-8.81L136.09-8.81Q139.33-8.81 139.42-6.09ZM149.39-6.09L149.39-6.09L148.31-6.09Q148.22-7.73 146.16-7.83L146.16-7.83Q144.23-7.78 144.23-6.33L144.23-6.33Q144.23-5.39 145.27-5.25L145.27-5.25L147.70-4.69Q149.63-4.22 149.63-2.34L149.63-2.34Q149.58 0.05 146.25 0.14L146.25 0.14Q144.42 0.14 143.67-0.61L143.67-0.61Q142.73-1.31 142.78-2.77L142.78-2.77L143.91-2.77Q143.95-0.80 146.25-0.75L146.25-0.75Q148.50-0.80 148.55-2.20L148.55-2.20Q148.73-3.38 146.67-3.75L146.67-3.75L144.89-4.13Q143.06-4.64 143.06-6.19L143.06-6.19Q143.20-8.72 146.06-8.81L146.06-8.81Q149.30-8.81 149.39-6.09ZM165.58-6.05L165.58-6.05L164.45-6.05Q164.03-7.78 162.06-7.83L162.06-7.83Q159.34-7.69 159.25-4.36L159.25-4.36Q159.25-0.80 162.11-0.80L162.11-0.80Q164.08-0.84 164.55-3.19L164.55-3.19L165.67-3.19Q165.16 0.05 161.88 0.14L161.88 0.14Q158.13 0 158.03-4.31L158.03-4.31Q158.22-8.63 162.06-8.81L162.06-8.81Q165.11-8.72 165.58-6.05ZM174.70 0L173.86-2.48L170.39-2.48L169.50 0L168.33 0L171.56-8.58L172.88-8.58L175.97 0L174.70 0ZM172.13-7.31L170.77-3.52L173.44-3.52L172.17-7.31L172.13-7.31ZM183.13-3.70L180.31-3.70L180.31 0L179.14 0L179.14-8.58L183.13-8.58Q185.98-8.58 185.98-6.28L185.98-6.28Q185.98-4.88 184.77-4.22L184.77-4.22Q185.80-3.94 185.80-2.58L185.80-2.58L185.89-1.03Q185.84-0.38 186.31-0.19L186.31-0.19L186.31 0L184.86 0Q184.72-0.61 184.67-2.16L184.67-2.16Q184.72-3.70 183.13-3.70L183.13-3.70ZM183.22-7.64L180.31-7.64L180.31-4.69L183.03-4.69Q184.77-4.69 184.77-6.19L184.77-6.19Q184.77-7.64 183.22-7.64L183.22-7.64ZM193.14 0L189.67 0L189.67-8.58L193.19-8.58Q196.66-8.39 196.80-4.41L196.80-4.41Q196.61-0.09 193.14 0L193.14 0ZM193-7.64L190.84-7.64L190.84-0.98L193.09-0.98Q195.53-1.13 195.63-4.31L195.63-4.31Q195.58-7.55 193-7.64L193-7.64Z" transform="translate(-0.9375, 8.8125)"></path>
                            </g>
                        </g>
                    </g>
                </g>
            </g>
        </g>
    </g>
    <mask id="982a40e9-e081-42b7-a175-892a0e454197">
        <g fill="white">
            <rect data-gra="graph-name-bg" stroke-width="2" class="i-icon-bg" x="0" y="0" width="464.39520263671875" height="24.76400375366211" fill-opacity="1"></rect>
        </g>
        <g transform="translate(5,2)" fill="black">
            <g transform="scale(1, 1)">
                <g transform="scale(2.320000000000001)">
                    <path d="M6.56-3.19L6.56-8.58L7.73-8.58L7.73-3.05Q7.59 0.05 4.22 0.14L4.22 0.14Q1.08 0.05 0.94-2.86L0.94-2.86L0.94-8.58L2.11-8.58L2.11-3.19Q2.16-0.84 4.27-0.80L4.27-0.80Q6.56-0.84 6.56-3.19L6.56-3.19ZM12.92-8.58L17.23-1.64L17.23-8.58L18.36-8.58L18.36 0L17.05 0L12.69-6.94L12.64-6.94L12.64 0L11.52 0L11.52-8.58L12.92-8.58ZM22.33-8.58L23.50-8.58L23.50 0L22.33 0L22.33-8.58ZM28.13-8.58L30.56-1.27L33.05-8.58L34.36-8.58L31.22 0L29.95 0L26.81-8.58L28.13-8.58ZM38.75-1.03L43.91-1.03L43.91 0L37.58 0L37.58-8.58L43.81-8.58L43.81-7.59L38.75-7.59L38.75-4.92L43.44-4.92L43.44-3.89L38.75-3.89L38.75-1.03ZM51.53-3.70L48.72-3.70L48.72 0L47.55 0L47.55-8.58L51.53-8.58Q54.39-8.58 54.39-6.28L54.39-6.28Q54.39-4.88 53.17-4.22L53.17-4.22Q54.20-3.94 54.20-2.58L54.20-2.58L54.30-1.03Q54.25-0.38 54.72-0.19L54.72-0.19L54.72 0L53.27 0Q53.13-0.61 53.08-2.16L53.08-2.16Q53.13-3.70 51.53-3.70L51.53-3.70ZM51.63-7.64L48.72-7.64L48.72-4.69L51.44-4.69Q53.17-4.69 53.17-6.19L53.17-6.19Q53.17-7.64 51.63-7.64L51.63-7.64ZM64.31-6.09L64.31-6.09L63.23-6.09Q63.14-7.73 61.08-7.83L61.08-7.83Q59.16-7.78 59.16-6.33L59.16-6.33Q59.16-5.39 60.19-5.25L60.19-5.25L62.63-4.69Q64.55-4.22 64.55-2.34L64.55-2.34Q64.50 0.05 61.17 0.14L61.17 0.14Q59.34 0.14 58.59-0.61L58.59-0.61Q57.66-1.31 57.70-2.77L57.70-2.77L58.83-2.77Q58.88-0.80 61.17-0.75L61.17-0.75Q63.42-0.80 63.47-2.20L63.47-2.20Q63.66-3.38 61.59-3.75L61.59-3.75L59.81-4.13Q57.98-4.64 57.98-6.19L57.98-6.19Q58.13-8.72 60.98-8.81L60.98-8.81Q64.22-8.81 64.31-6.09ZM73.67 0L72.83-2.48L69.36-2.48L68.47 0L67.30 0L70.53-8.58L71.84-8.58L74.94 0L73.67 0ZM71.09-7.31L69.73-3.52L72.41-3.52L71.14-7.31L71.09-7.31ZM77.97-8.58L79.14-8.58L79.14-1.03L83.50-1.03L83.50 0L77.97 0L77.97-8.58ZM97.63 0L96.78-2.48L93.31-2.48L92.42 0L91.25 0L94.48-8.58L95.80-8.58L98.89 0L97.63 0ZM95.05-7.31L93.69-3.52L96.36-3.52L95.09-7.31L95.05-7.31ZM109.09-6.05L109.09-6.05L107.97-6.05Q107.55-7.78 105.58-7.83L105.58-7.83Q102.86-7.69 102.77-4.36L102.77-4.36Q102.77-0.80 105.63-0.80L105.63-0.80Q107.59-0.84 108.06-3.19L108.06-3.19L109.19-3.19Q108.67 0.05 105.39 0.14L105.39 0.14Q101.64 0 101.55-4.31L101.55-4.31Q101.73-8.63 105.58-8.81L105.58-8.81Q108.63-8.72 109.09-6.05ZM119.72-6.05L119.72-6.05L118.59-6.05Q118.17-7.78 116.20-7.83L116.20-7.83Q113.48-7.69 113.39-4.36L113.39-4.36Q113.39-0.80 116.25-0.80L116.25-0.80Q118.22-0.84 118.69-3.19L118.69-3.19L119.81-3.19Q119.30 0.05 116.02 0.14L116.02 0.14Q112.27 0 112.17-4.31L112.17-4.31Q112.36-8.63 116.20-8.81L116.20-8.81Q119.25-8.72 119.72-6.05ZM124.48-1.03L129.64-1.03L129.64 0L123.31 0L123.31-8.58L129.55-8.58L129.55-7.59L124.48-7.59L124.48-4.92L129.17-4.92L129.17-3.89L124.48-3.89L124.48-1.03ZM139.42-6.09L139.42-6.09L138.34-6.09Q138.25-7.73 136.19-7.83L136.19-7.83Q134.27-7.78 134.27-6.33L134.27-6.33Q134.27-5.39 135.30-5.25L135.30-5.25L137.73-4.69Q139.66-4.22 139.66-2.34L139.66-2.34Q139.61 0.05 136.28 0.14L136.28 0.14Q134.45 0.14 133.70-0.61L133.70-0.61Q132.77-1.31 132.81-2.77L132.81-2.77L133.94-2.77Q133.98-0.80 136.28-0.75L136.28-0.75Q138.53-0.80 138.58-2.20L138.58-2.20Q138.77-3.38 136.70-3.75L136.70-3.75L134.92-4.13Q133.09-4.64 133.09-6.19L133.09-6.19Q133.23-8.72 136.09-8.81L136.09-8.81Q139.33-8.81 139.42-6.09ZM149.39-6.09L149.39-6.09L148.31-6.09Q148.22-7.73 146.16-7.83L146.16-7.83Q144.23-7.78 144.23-6.33L144.23-6.33Q144.23-5.39 145.27-5.25L145.27-5.25L147.70-4.69Q149.63-4.22 149.63-2.34L149.63-2.34Q149.58 0.05 146.25 0.14L146.25 0.14Q144.42 0.14 143.67-0.61L143.67-0.61Q142.73-1.31 142.78-2.77L142.78-2.77L143.91-2.77Q143.95-0.80 146.25-0.75L146.25-0.75Q148.50-0.80 148.55-2.20L148.55-2.20Q148.73-3.38 146.67-3.75L146.67-3.75L144.89-4.13Q143.06-4.64 143.06-6.19L143.06-6.19Q143.20-8.72 146.06-8.81L146.06-8.81Q149.30-8.81 149.39-6.09ZM165.58-6.05L165.58-6.05L164.45-6.05Q164.03-7.78 162.06-7.83L162.06-7.83Q159.34-7.69 159.25-4.36L159.25-4.36Q159.25-0.80 162.11-0.80L162.11-0.80Q164.08-0.84 164.55-3.19L164.55-3.19L165.67-3.19Q165.16 0.05 161.88 0.14L161.88 0.14Q158.13 0 158.03-4.31L158.03-4.31Q158.22-8.63 162.06-8.81L162.06-8.81Q165.11-8.72 165.58-6.05ZM174.70 0L173.86-2.48L170.39-2.48L169.50 0L168.33 0L171.56-8.58L172.88-8.58L175.97 0L174.70 0ZM172.13-7.31L170.77-3.52L173.44-3.52L172.17-7.31L172.13-7.31ZM183.13-3.70L180.31-3.70L180.31 0L179.14 0L179.14-8.58L183.13-8.58Q185.98-8.58 185.98-6.28L185.98-6.28Q185.98-4.88 184.77-4.22L184.77-4.22Q185.80-3.94 185.80-2.58L185.80-2.58L185.89-1.03Q185.84-0.38 186.31-0.19L186.31-0.19L186.31 0L184.86 0Q184.72-0.61 184.67-2.16L184.67-2.16Q184.72-3.70 183.13-3.70L183.13-3.70ZM183.22-7.64L180.31-7.64L180.31-4.69L183.03-4.69Q184.77-4.69 184.77-6.19L184.77-6.19Q184.77-7.64 183.22-7.64L183.22-7.64ZM193.14 0L189.67 0L189.67-8.58L193.19-8.58Q196.66-8.39 196.80-4.41L196.80-4.41Q196.61-0.09 193.14 0L193.14 0ZM193-7.64L190.84-7.64L190.84-0.98L193.09-0.98Q195.53-1.13 195.63-4.31L195.63-4.31Q195.58-7.55 193-7.64L193-7.64Z" transform="translate(-0.9375, 8.8125)"></path>
                </g>
            </g>
        </g>
    </mask>
    <defs v-gra="od">
        <linearGradient x1="0" y1="1" x2="0" y2="0" id="f51df68b-e8e8-4b3d-bd58-33356740797d">
            <stop offset="0%" stop-color="#091f3f"></stop>
            <stop offset="100%" stop-color="#527895"></stop>
        </linearGradient>
        <filter id="42443b3f1de60f6b6fd3b6a9844b4764" filterUnits="objectBoundingBox">
            <feColorMatrix type="matrix" values="0 0 0 0 0.99609375  0 0 0 0 0.99609375  0 0 0 0 0.99609375  0 0 0 1 0"></feColorMatrix>
        </filter>
        <linearGradient x1="0" y1="1" x2="0" y2="0" id="a2d51929-9f26-48d1-b8db-7846b3dd33b5">
            <stop offset="0%" stop-color="#091f3f"></stop>
            <stop offset="100%" stop-color="#527895"></stop>
        </linearGradient>
        <filter id="42443b3f1de60f6b6fd3b6a9844b4764" filterUnits="objectBoundingBox">
            <feColorMatrix type="matrix" values="0 0 0 0 0.99609375  0 0 0 0 0.99609375  0 0 0 0 0.99609375  0 0 0 1 0"></feColorMatrix>
        </filter>
    </defs>
</svg>