<svg data-v-0dd9719b="" version="1.0"
    xmlns="http://www.w3.org/2000/svg"
    xmlns:xlink="http://www.w3.org/1999/xlink" width="100%" height="100%" viewBox="0 0 340.000000 250.000000" style="margin: auto;" fill="none">
    <rect data-v-0dd9719b="" x="0" y="0" width="100%" height="100%" fill="#ffffff" fill-opacity="1" class="background"></rect>
    <rect data-v-0dd9719b="" x="0" y="0" width="100%" height="100%" fill="url(#watermark)" fill-opacity="1" class="watermarklayer"></rect>
    <g data-v-0dd9719b="" fill="#333" class="icon-text-wrapper icon-svg-group iconsvg" transform="translate(37.182281494140625,97.60449028015137)">
        <g class="iconsvg-imagesvg" transform="translate(0,0)" mask="url(#cad72ffa-ae18-418a-ae20-4ca4cabfc313)">
            <g>
                <rect fill="#333" fill-opacity="0" stroke-width="2" x="0" y="0" width="60" height="54.7910179257947" class="image-rect"></rect>
                <svg x="0" y="0" width="60" height="54.7910179257947" filtersec="colorsb1135505531" class="image-svg-svg primary" style="overflow: visible;">
                    <svg
                        xmlns="http://www.w3.org/2000/svg" viewBox="12.175359725952148 8.73588752746582 1848.0164794921875 1687.57666015625" preserveAspectRatio="none" display="block">
                        <path fill="#44D9E6" d="M 963.968 9.4098 C 997.201 6.31293 1033.81 14.0857 1063.58 28.6894 C 1141.77 67.0441 1163.55 142.277 1192.43 217.841 C 1212.63 270.706 1231.7 326.684 1252.52 379.771 C 1264.09 408.088 1275.69 446.278 1297.14 468.607 C 1333.77 505.278 1397.5 501.956 1445.68 508.65 C 1491.81 513.041 1536.33 520.053 1582.68 523.278 C 1710.52 532.172 1862.72 553.563 1860.16 718.735 C 1858.64 816.222 1784.69 862.452 1714.37 917.992 C 1692.27 935.686 1670.05 953.228 1647.7 970.615 C 1629.88 984.26 1608.34 997.894 1592.02 1012.48 C 1553.4 1047.03 1486.84 1080.35 1492.14 1140.65 C 1494.4 1166.37 1500.4 1192.16 1505.11 1216.92 L 1536.21 1375.93 C 1551.86 1456.92 1574.72 1541.59 1527.72 1617 C 1503.55 1655.57 1464.8 1682.71 1420.29 1692.25 C 1329.75 1712.34 1250.63 1653.8 1179.46 1606.97 C 1124.9 1571.06 1071.3 1533.22 1016.86 1497.19 C 980.314 1472.99 950.649 1458.72 905.759 1468.63 C 875.468 1475.99 842.116 1497.71 814.605 1513.84 L 697.776 1582.38 C 634.481 1619.67 577.623 1660.48 502.492 1668.05 C 455.053 1672.43 407.786 1658.05 370.827 1627.99 C 331.895 1596.11 302.767 1538.2 304.708 1486.63 C 306.906 1428.25 330.707 1363.76 345.609 1307.38 C 357.974 1260.6 372.403 1213.55 384.308 1166.52 C 419.203 1049.59 409.574 1041.98 323.703 964.121 C 283.512 927.771 242.542 892.291 200.821 857.706 C 166.041 829.29 129.023 801.195 94.5617 773.092 C 51.6063 736.387 17.7971 699.227 12.8761 640.498 C 5.90281 557.276 51.3803 491.57 131.177 468.431 C 145.321 464.329 162.099 464.04 176.906 463.063 C 202.795 461.133 228.747 460.166 254.709 460.164 L 466.523 460.106 L 533.52 460.214 C 549.015 460.219 564.037 460.083 579.369 459.329 C 666.064 455.175 685.088 381.957 715.376 316.06 C 735.35 270.616 757.312 225.828 777.54 180.534 C 815.796 94.8753 859.585 18.6832 963.968 9.4098 z M 940.357 1226.05 C 1006.17 1233.87 1034.63 1257.01 1088.38 1293.99 C 1124.17 1318.62 1158.3 1344.7 1193.48 1370.17 C 1210.45 1382.44 1234.06 1400.3 1252.78 1408.54 C 1266.5 1414.58 1294.04 1412.98 1305.8 1402.8 C 1316.31 1393.7 1322.05 1384.1 1323.61 1370.04 C 1326.61 1344.97 1318.86 1321.51 1314.62 1297.18 C 1306.95 1253.15 1296.84 1209.58 1288.68 1165.63 C 1284.31 1144.84 1280.83 1123.85 1278.4 1102.74 C 1277.27 1092.84 1275.1 1081.28 1275.35 1071.45 C 1276.41 1031.06 1291.05 992.03 1320.3 963.508 C 1326.65 957.314 1332.92 951.542 1339.79 945.952 C 1363.71 926.491 1388.26 908.074 1413.43 890.279 C 1434.91 873.643 1457.11 857.009 1478.25 840.027 C 1495.72 825.986 1515.76 814.069 1530.04 796.656 C 1543.98 779.659 1548.19 753.189 1532.61 735.969 C 1528.07 730.945 1523.01 725.55 1516.5 722.842 C 1488.61 712.612 1454.72 711.707 1425.13 708.475 C 1408.96 706.71 1390.46 703.895 1374.96 702.836 C 1338.16 700.323 1302.79 697.159 1266.29 691.737 C 1240.54 687.912 1218.6 687.194 1194.18 676.099 C 1172.52 666.26 1154.8 651.341 1139.47 633.312 C 1116.37 606.142 1105.2 568.19 1092.56 535.063 C 1075.91 490.661 1062.45 445.127 1045.9 400.69 C 1037.7 378.699 1030.53 353.674 1017.45 334.014 C 1005.51 316.068 988.89 308.881 967.858 311.281 C 942.766 317.374 934.102 330.269 923.111 353.169 C 910.659 379.116 899.297 405.62 887.871 432.027 C 872.173 467.669 855.942 503.074 839.184 538.23 C 827.95 561.953 815.47 589.734 798.798 610.236 C 752.269 667.451 682.472 661.718 615.788 661.755 L 495.821 661.761 C 450.724 661.742 363.908 654.812 379.105 725.296 C 385.114 753.17 435.649 789.314 457.283 807.685 C 476.599 824.088 495.488 840.808 514.64 857.385 C 545.359 884.032 581.973 911.809 604.45 945.929 C 618.119 966.554 626.505 990.225 628.867 1014.85 C 633.403 1065.86 607.272 1126.85 594.47 1176.16 C 586.302 1205.61 576.146 1236.05 567.721 1265.31 C 557.359 1301.29 527.65 1361.5 570.027 1387.95 C 601.367 1407.51 641.491 1376.46 667.318 1361.43 C 696.557 1344.53 725.538 1327.19 754.251 1309.41 C 806.935 1276.7 877.401 1225.81 940.357 1226.05 z"></path>
                        <path fill="#44D9E6" d="M 962.703 657.387 C 969.202 657.88 974.418 659.878 979.3 664.302 C 994.117 677.728 1018.02 742.337 1027.6 764.077 C 1032.23 774.594 1036.42 786.849 1044.92 794.965 C 1056.35 805.866 1076.29 807.526 1091.1 810.55 C 1107.31 813.863 1123.43 817.678 1139.69 820.751 C 1155.83 823.801 1173.09 825.508 1188.55 831.098 C 1193.92 833.04 1199.25 835.867 1203.16 840.109 C 1206.77 844.02 1208.82 848.96 1208.34 854.313 C 1206.51 874.826 1158 910.197 1141.4 924.517 C 1129.71 934.61 1108.78 950.167 1101.8 963.907 C 1087.58 991.917 1121.29 1082.24 1118.15 1118.93 C 1117.53 1126.21 1114.56 1133.72 1108.73 1138.36 C 1104.59 1141.65 1099.19 1142.88 1093.99 1142.2 C 1078.69 1140.18 1063.77 1129.61 1050.91 1121.66 C 1029.64 1108.52 975.008 1071.89 952.376 1069.71 C 951.986 1069.67 951.594 1069.65 951.203 1069.61 C 934.128 1070.96 920.222 1079.52 905.3 1087.18 C 883.163 1098.54 840.773 1122.98 818.128 1129.05 C 808.247 1131.7 795.472 1132.61 786.45 1126.93 C 762.46 1111.84 810.021 990.912 806.217 961.601 C 801.81 927.64 706.778 873.663 701.716 841.894 C 700.673 835.348 702.369 828.123 706.551 822.912 C 720.263 805.828 772.741 807.667 793.81 805.495 C 812.744 803.543 847.671 801.757 864.49 794.164 C 870.378 791.506 875.144 786.949 879.052 781.892 C 888.008 770.3 894.153 756.053 901.013 743.176 C 908.064 729.943 915.673 716.984 922.449 703.608 C 928.401 691.857 933.641 678.84 942.089 668.627 C 948.033 661.44 953.48 658.342 962.703 657.387 z"></path>
                    </svg>
                </svg>
                <!---->
            </g>
            <rect v-gra="id" width="72" height="66.79101943969727" transform="translate(-6, -6)" style="pointer-events:none;" fill="url(#LsX87gDv0vdahFRJfVonI)"></rect>
        </g>
        <g transform="translate(72,5.989849090576172)">
            <g data-gra="path-name" fill-rule="" class="tp-name iconsvg-namesvg" transform="translate(0,0)" fill="url(#809346b1-c8f5-4dc0-8a7a-fb2d16f67c7b)">
                <g transform="scale(0.8199999999999998)">
                    <g>
                        <path d="M20.61-29.53L20.61-29.53Q27.29-30.06 32.21-29.53L32.21-29.53Q33.62-28.92 33.97-27.73L33.97-27.73Q34.37-25.84 31.42-24.26L31.42-24.26Q30.1-23.2 31.33-23.16L31.33-23.16Q34.1-23.07 35.68-22.63L35.68-22.63Q36.61-22.28 37-21.18L37-21.18Q37.18-20.35 37.13-19.51L37.13-19.51Q36.83-17.89 37.05-15.69L37.05-15.69Q37.44-9.01 36.96-6.37L36.96-6.37Q36.12-4.35 34.76-5.32L34.76-5.32Q34.23-5.76 34.23-7.21L34.23-7.21Q34.15-8.35 34.19-9.67L34.19-9.67Q34.19-10.72 32.87-10.9L32.87-10.9Q31.07-11.03 29.27-10.99L29.27-10.99Q28.17-10.99 28.17-9.93L28.17-9.93Q28.3-7.51 27.73-5.45L27.73-5.45Q27.33-4.79 26.81-4.79L26.81-4.79Q25.97-4.79 25.53-5.67L25.53-5.67Q25.22-7.08 25.09-9.84L25.09-9.84Q25.09-10.94 24.04-10.94L24.04-10.94Q22.15-10.94 20.21-10.81L20.21-10.81Q19.07-10.72 19.07-9.45L19.07-9.45 18.94-7.51Q18.72-5.49 16.96-5.76L16.96-5.76Q16.17-6.33 16.13-7.25L16.13-7.25Q15.95-11.12 16.52-20.21L16.52-20.21Q16.52-21.18 16.83-22.15L16.83-22.15Q17.31-22.94 18.33-22.98L18.33-22.98Q20.26-23.29 22.37-23.2L22.37-23.2Q23.42-23.2 22.19-24.26L22.19-24.26Q21.53-24.65 20.87-24.74L20.87-24.74Q18.28-25.75 18.54-27.82L18.54-27.82Q19.12-29.31 20.61-29.53ZM6.06-26.85L6.06-26.85Q8.04-28.83 9.89-27.07L9.89-27.07Q10.99-25.84 11.91-25.27L11.91-25.27Q13.23-24.35 12.08-22.9L12.08-22.9Q11.21-22.63 10.02-23.38L10.02-23.38Q8.31-23.99 6.59-24.48L6.59-24.48Q4.75-25.22 6.06-26.85ZM28.96-27.47L28.96-27.47Q26.76-27.69 24.08-27.33L24.08-27.33Q22.85-27.11 24.08-26.19L24.08-26.19 25.31-25.22Q26.59-24.13 26.81-24.13L26.81-24.13Q28.56-25.05 29.49-26.1L29.49-26.1Q30.28-27.16 28.96-27.47ZM3.12-19.34L3.12-19.34Q5.01-22.28 7.6-20.08L7.6-20.08 9.36-18.98Q11.03-18.11 10.11-16.7L10.11-16.7Q9.93-16.48 8.26-16.66L8.26-16.66Q6.94-17.05 4.75-17.27L4.75-17.27Q2.59-17.53 3.12-19.34ZM23.64-20.57L23.64-20.57Q22.1-20.43 20.7-20.13L20.7-20.13Q19.64-19.78 19.42-19.07L19.42-19.07Q19.34-18.33 20.65-18.28L20.65-18.28 24.08-18.24Q25.18-18.24 25.14-19.42L25.14-19.42Q24.96-20.65 23.64-20.57ZM32.52-20.39L32.52-20.39Q30.94-20.74 29.36-20.74L29.36-20.74Q28.26-20.74 28.13-19.56L28.13-19.56Q28.08-18.28 29.4-18.33L29.4-18.33Q30.98-18.41 32.7-18.37L32.7-18.37Q34.01-18.41 33.97-19.12L33.97-19.12Q33.84-19.86 32.52-20.39ZM25.18-14.55L25.18-14.55Q25.18-15.47 24.13-15.47L24.13-15.47Q22.24-15.47 20.3-15.34L20.3-15.34Q19.25-15.29 19.2-14.63L19.2-14.63Q19.16-13.84 20.39-13.75L20.39-13.75 24.08-13.67Q25.18-13.67 25.18-14.55ZM33.13-15.47L33.13-15.47 29.22-15.56Q28.13-15.56 28.13-14.68L28.13-14.68Q28.13-13.71 29.44-13.75L29.44-13.75 32.65-13.8Q34.19-13.84 34.19-14.55L34.19-14.55Q34.19-15.29 33.13-15.47ZM4.22-13.71L4.22-13.71Q5.01-14.06 5.98-13.49L5.98-13.49Q7.47-12.7 8.96-11.78L8.96-11.78 10.37-11.51Q12.92-10.72 10.37-7.6L10.37-7.6Q9.54-6.81 8.83-5.89L8.83-5.89Q8.31-5.23 8.48-4.88L8.48-4.88Q8.61-4.7 9.93-4.88L9.93-4.88Q18.94-5.05 32.56-2.59L32.56-2.59Q37.18-1.98 42.67-2.02L42.67-2.02Q44.69-1.45 43.07 0.18L43.07 0.18Q39.2 3.08 36.04 2.46L36.04 2.46Q27.42-0.62 21.97-1.54L21.97-1.54Q16.66-2.5 7.65-1.71L7.65-1.71Q4.39-2.2 5.19-4.92L5.19-4.92Q5.93-6.77 7.25-8.44L7.25-8.44Q8.22-9.54 6.86-9.67L6.86-9.67Q4.31-10.15 2.86-11.12L2.86-11.12Q1.85-12.61 4.22-13.71ZM52.08-27.77L52.08-27.77Q54.1-29.93 55.99-29.22L55.99-29.22Q58.36-28.39 61.26-28.26L61.26-28.26Q62.31-28.21 63.02-27.95L63.02-27.95Q64.82-27.38 63.98-25.93L63.98-25.93Q62.71-24.96 60.21-25.36L60.21-25.36Q57.04-25.58 53.83-25.62L53.83-25.62Q50.84-25.66 52.08-27.77ZM71.63-29.14L71.63-29.14Q72.82-29.4 75.81-28.96L75.81-28.96Q78.97-29.05 82.31-29L82.31-29Q84.29-28.74 83.63-26.89L83.63-26.89Q82.92-25.58 81.21-25.84L81.21-25.84Q75.81-26.19 72.2-25.44L72.2-25.44Q70.93-25.18 70.18-25.62L70.18-25.62Q69.04-26.24 70-27.86L70-27.86Q70.8-28.7 71.63-29.14ZM50.63-20.52L50.63-20.52Q52.21-21.49 55.24-20.7L55.24-20.7 58.75-20.39Q60.78-20.43 61.79-19.78L61.79-19.78Q62.49-19.29 62.36-18.41L62.36-18.41Q62.09-17.53 62.01-16.66L62.01-16.66Q61.74-12.44 60.82-9.62L60.82-9.62Q59.41-5.93 56.12-2.59L56.12-2.59Q53.75-0.22 52.47 0.22L52.47 0.22Q51.5 0.7 50.71 0L50.71 0Q49.48-1.23 50.36-2.64L50.36-2.64Q52.08-4.26 53.96-5.89L53.96-5.89Q59.5-10.5 59.06-15.78L59.06-15.78Q58.97-17.18 58.4-17.53L58.4-17.53Q55.72-18.19 53.04-17.4L53.04-17.4Q52.12-17.05 50.67-17.36L50.67-17.36Q47.64-18.76 50.63-20.52ZM66.27-20.13L69.43-20.26Q78.4-21.01 88.99-19.42L88.99-19.42Q90.83-18.72 88.11-16.26L88.11-16.26Q87.23-15.47 86.35-15.69L86.35-15.69Q83.28-16.92 81.12-17.4L81.12-17.4Q79.89-17.58 79.8-16.61L79.8-16.61Q79.5-14.9 79.58-13.32L79.58-13.32Q80.16-6.2 79.89-0.44L79.89-0.44Q80.16 1.98 78.35 2.64L78.35 2.64Q76.38 2.5 76.33 0.44L76.33 0.44Q76.55-8.53 76.42-16.61L76.42-16.61Q76.38-17.8 75.37-17.8L75.37-17.8Q71.06-17.89 67.5-16.52L67.5-16.52Q66.36-15.91 65.26-16.3L65.26-16.3Q64.07-16.96 64.47-18.28L64.47-18.28Q64.82-19.38 66.27-20.13L66.27-20.13ZM93.08-13.97L93.08-13.97Q95.01-15.25 97.82-15.12L97.82-15.12Q113.73-15.21 127.92-14.41L127.92-14.41Q130.21-14.28 132.63-14.33L132.63-14.33Q133.55-14.11 133.59-13.54L133.59-13.54Q133.59-12.74 132.23-11.25L132.23-11.25Q130.12-8.48 127.88-9.76L127.88-9.76Q124.72-11.03 120.85-11.56L120.85-11.56Q107.53-12.92 95.14-10.55L95.14-10.55Q93.12-10.06 92.2-11.47L92.2-11.47Q91.67-12.66 93.08-13.97ZM153.72-30.23L153.72-30.23Q154.91-30.81 155.79-30.1L155.79-30.1Q157.41-29.14 157.1-27.11L157.1-27.11 157.1-26.41Q157.1-25.36 158.42-25.4L158.42-25.4Q161.94-25.58 165.59-25.4L165.59-25.4Q167.56-25.36 167.08-23.69L167.08-23.69Q166.42-21.58 164-22.1L164-22.1Q161.67-22.68 158.33-22.37L158.33-22.37Q157.28-22.15 157.24-20.83L157.24-20.83Q157.24-19.6 157.06-18.24L157.06-18.24Q157.02-17.18 158.07-17.18L158.07-17.18Q166.2-16.83 176.31-15.38L176.31-15.38Q177.8-15.12 178.07-14.81L178.07-14.81Q178.29-13.71 177.28-12.74L177.28-12.74Q175.39-10.15 172.97-11.56L172.97-11.56Q165.23-14.59 158.25-14.46L158.25-14.46Q157.15-14.46 157.15-13.4L157.15-13.4Q157.19-6.59 157.02 0.35L157.02 0.35Q157.1 2.77 155.3 3.47L155.3 3.47Q153.54 3.65 153.19 1.41L153.19 1.41Q153.11 0.18 153.59-2.46L153.59-2.46Q154.29-8.39 153.98-13.4L153.98-13.4Q153.85-14.46 152.8-14.46L152.8-14.46Q146.16-14.37 140.63-11.82L140.63-11.82Q139.7-11.34 138.6-11.69L138.6-11.69Q137.24-12.22 137.5-13.8L137.5-13.8Q138.74-16.79 141.72-16.44L141.72-16.44Q147.35-16.7 152.97-17.14L152.97-17.14Q154.07-17.14 154.07-18.19L154.07-18.19Q154.07-24.04 153.19-28.48L153.19-28.48Q152.75-29.44 153.72-30.23ZM157.72-12.08L157.72-12.08Q159.35-13.01 160.8-12L160.8-12 164.31-9.98Q167.12-8.09 169.58-7.6L169.58-7.6Q171.65-7.12 170.2-5.54L170.2-5.54Q166.68-2.29 164.09-5.67L164.09-5.67Q161.72-9.01 159.21-9.89L159.21-9.89Q158.12-10.15 157.85-10.42L157.85-10.42Q156.97-11.34 157.72-12.08ZM200.61-29.53L200.61-29.53Q207.29-30.06 212.21-29.53L212.21-29.53Q213.62-28.92 213.97-27.73L213.97-27.73Q214.37-25.84 211.42-24.26L211.42-24.26Q210.1-23.2 211.33-23.16L211.33-23.16Q214.1-23.07 215.68-22.63L215.68-22.63Q216.61-22.28 217-21.18L217-21.18Q217.18-20.35 217.13-19.51L217.13-19.51Q216.83-17.89 217.05-15.69L217.05-15.69Q217.44-9.01 216.96-6.37L216.96-6.37Q216.12-4.35 214.76-5.32L214.76-5.32Q214.23-5.76 214.23-7.21L214.23-7.21Q214.15-8.35 214.19-9.67L214.19-9.67Q214.19-10.72 212.87-10.9L212.87-10.9Q211.07-11.03 209.27-10.99L209.27-10.99Q208.17-10.99 208.17-9.93L208.17-9.93Q208.3-7.51 207.73-5.45L207.73-5.45Q207.33-4.79 206.81-4.79L206.81-4.79Q205.97-4.79 205.53-5.67L205.53-5.67Q205.22-7.08 205.09-9.84L205.09-9.84Q205.09-10.94 204.04-10.94L204.04-10.94Q202.15-10.94 200.21-10.81L200.21-10.81Q199.07-10.72 199.07-9.45L199.07-9.45 198.94-7.51Q198.72-5.49 196.96-5.76L196.96-5.76Q196.17-6.33 196.13-7.25L196.13-7.25Q195.95-11.12 196.52-20.21L196.52-20.21Q196.52-21.18 196.83-22.15L196.83-22.15Q197.31-22.94 198.33-22.98L198.33-22.98Q200.26-23.29 202.37-23.2L202.37-23.2Q203.42-23.2 202.19-24.26L202.19-24.26Q201.53-24.65 200.87-24.74L200.87-24.74Q198.28-25.75 198.54-27.82L198.54-27.82Q199.12-29.31 200.61-29.53ZM186.06-26.85L186.06-26.85Q188.04-28.83 189.89-27.07L189.89-27.07Q190.99-25.84 191.91-25.27L191.91-25.27Q193.23-24.35 192.08-22.9L192.08-22.9Q191.21-22.63 190.02-23.38L190.02-23.38Q188.31-23.99 186.59-24.48L186.59-24.48Q184.75-25.22 186.06-26.85ZM208.96-27.47L208.96-27.47Q206.76-27.69 204.08-27.33L204.08-27.33Q202.85-27.11 204.08-26.19L204.08-26.19 205.31-25.22Q206.59-24.13 206.81-24.13L206.81-24.13Q208.56-25.05 209.49-26.1L209.49-26.1Q210.28-27.16 208.96-27.47ZM183.12-19.34L183.12-19.34Q185.01-22.28 187.6-20.08L187.6-20.08 189.36-18.98Q191.03-18.11 190.11-16.7L190.11-16.7Q189.93-16.48 188.26-16.66L188.26-16.66Q186.94-17.05 184.75-17.27L184.75-17.27Q182.59-17.53 183.12-19.34ZM203.64-20.57L203.64-20.57Q202.1-20.43 200.7-20.13L200.7-20.13Q199.64-19.78 199.42-19.07L199.42-19.07Q199.34-18.33 200.65-18.28L200.65-18.28 204.08-18.24Q205.18-18.24 205.14-19.42L205.14-19.42Q204.96-20.65 203.64-20.57ZM212.52-20.39L212.52-20.39Q210.94-20.74 209.36-20.74L209.36-20.74Q208.26-20.74 208.13-19.56L208.13-19.56Q208.08-18.28 209.4-18.33L209.4-18.33Q210.98-18.41 212.7-18.37L212.7-18.37Q214.01-18.41 213.97-19.12L213.97-19.12Q213.84-19.86 212.52-20.39ZM205.18-14.55L205.18-14.55Q205.18-15.47 204.13-15.47L204.13-15.47Q202.24-15.47 200.3-15.34L200.3-15.34Q199.25-15.29 199.2-14.63L199.2-14.63Q199.16-13.84 200.39-13.75L200.39-13.75 204.08-13.67Q205.18-13.67 205.18-14.55ZM213.13-15.47L213.13-15.47 209.22-15.56Q208.13-15.56 208.13-14.68L208.13-14.68Q208.13-13.71 209.44-13.75L209.44-13.75 212.65-13.8Q214.19-13.84 214.19-14.55L214.19-14.55Q214.19-15.29 213.13-15.47ZM184.22-13.71L184.22-13.71Q185.01-14.06 185.98-13.49L185.98-13.49Q187.47-12.7 188.96-11.78L188.96-11.78 190.37-11.51Q192.92-10.72 190.37-7.6L190.37-7.6Q189.54-6.81 188.83-5.89L188.83-5.89Q188.31-5.23 188.48-4.88L188.48-4.88Q188.61-4.7 189.93-4.88L189.93-4.88Q198.94-5.05 212.56-2.59L212.56-2.59Q217.18-1.98 222.67-2.02L222.67-2.02Q224.69-1.45 223.07 0.18L223.07 0.18Q219.2 3.08 216.04 2.46L216.04 2.46Q207.42-0.62 201.97-1.54L201.97-1.54Q196.66-2.5 187.65-1.71L187.65-1.71Q184.39-2.2 185.19-4.92L185.19-4.92Q185.93-6.77 187.25-8.44L187.25-8.44Q188.22-9.54 186.86-9.67L186.86-9.67Q184.31-10.15 182.86-11.12L182.86-11.12Q181.85-12.61 184.22-13.71Z" transform="translate(-2.5581953525543213, 30.490774154663086)"></path>
                    </g>
                    <!---->
                    <!---->
                    <!---->
                    <!---->
                    <!---->
                    <!---->
                    <!---->
                </g>
            </g>
            <g data-gra="path-slogan" fill-rule="" class="tp-slogan iconsvg-slogansvg" fill="url(#99de4d60-5e0b-48f7-a651-8a85e3aa64fe)" transform="translate(-12.224563598632812,33.858816146850586)">
                <!---->
                <!---->
                <g mask="url(#b7f1ea27-398b-41a7-b352-2daee20d4325)">
                    <g>
                        <rect data-gra="graph-name-bg" stroke-width="2" class="i-icon-bg" x="0" y="0" width="205.86000061035156" height="12.95000171661377" fill-opacity="1"></rect>
                        <!---->
                        <!---->
                    </g>
                    <g transform="translate(5,2)">
                        <g transform="scale(1, 1)" fill="#ffffff">
                            <g transform="scale(1)">
                                <path d="M6.56-3.19L6.56-8.58L7.73-8.58L7.73-3.05Q7.59 0.05 4.22 0.14L4.22 0.14Q1.08 0.05 0.94-2.86L0.94-2.86L0.94-8.58L2.11-8.58L2.11-3.19Q2.16-0.84 4.27-0.80L4.27-0.80Q6.56-0.84 6.56-3.19L6.56-3.19ZM12.92-8.58L17.23-1.64L17.23-8.58L18.36-8.58L18.36 0L17.05 0L12.69-6.94L12.64-6.94L12.64 0L11.52 0L11.52-8.58L12.92-8.58ZM22.33-8.58L23.50-8.58L23.50 0L22.33 0L22.33-8.58ZM28.13-8.58L30.56-1.27L33.05-8.58L34.36-8.58L31.22 0L29.95 0L26.81-8.58L28.13-8.58ZM38.75-1.03L43.91-1.03L43.91 0L37.58 0L37.58-8.58L43.81-8.58L43.81-7.59L38.75-7.59L38.75-4.92L43.44-4.92L43.44-3.89L38.75-3.89L38.75-1.03ZM51.53-3.70L48.72-3.70L48.72 0L47.55 0L47.55-8.58L51.53-8.58Q54.39-8.58 54.39-6.28L54.39-6.28Q54.39-4.88 53.17-4.22L53.17-4.22Q54.20-3.94 54.20-2.58L54.20-2.58L54.30-1.03Q54.25-0.38 54.72-0.19L54.72-0.19L54.72 0L53.27 0Q53.13-0.61 53.08-2.16L53.08-2.16Q53.13-3.70 51.53-3.70L51.53-3.70ZM51.63-7.64L48.72-7.64L48.72-4.69L51.44-4.69Q53.17-4.69 53.17-6.19L53.17-6.19Q53.17-7.64 51.63-7.64L51.63-7.64ZM64.31-6.09L64.31-6.09L63.23-6.09Q63.14-7.73 61.08-7.83L61.08-7.83Q59.16-7.78 59.16-6.33L59.16-6.33Q59.16-5.39 60.19-5.25L60.19-5.25L62.63-4.69Q64.55-4.22 64.55-2.34L64.55-2.34Q64.50 0.05 61.17 0.14L61.17 0.14Q59.34 0.14 58.59-0.61L58.59-0.61Q57.66-1.31 57.70-2.77L57.70-2.77L58.83-2.77Q58.88-0.80 61.17-0.75L61.17-0.75Q63.42-0.80 63.47-2.20L63.47-2.20Q63.66-3.38 61.59-3.75L61.59-3.75L59.81-4.13Q57.98-4.64 57.98-6.19L57.98-6.19Q58.13-8.72 60.98-8.81L60.98-8.81Q64.22-8.81 64.31-6.09ZM73.67 0L72.83-2.48L69.36-2.48L68.47 0L67.30 0L70.53-8.58L71.84-8.58L74.94 0L73.67 0ZM71.09-7.31L69.73-3.52L72.41-3.52L71.14-7.31L71.09-7.31ZM77.97-8.58L79.14-8.58L79.14-1.03L83.50-1.03L83.50 0L77.97 0L77.97-8.58ZM97.63 0L96.78-2.48L93.31-2.48L92.42 0L91.25 0L94.48-8.58L95.80-8.58L98.89 0L97.63 0ZM95.05-7.31L93.69-3.52L96.36-3.52L95.09-7.31L95.05-7.31ZM109.09-6.05L109.09-6.05L107.97-6.05Q107.55-7.78 105.58-7.83L105.58-7.83Q102.86-7.69 102.77-4.36L102.77-4.36Q102.77-0.80 105.63-0.80L105.63-0.80Q107.59-0.84 108.06-3.19L108.06-3.19L109.19-3.19Q108.67 0.05 105.39 0.14L105.39 0.14Q101.64 0 101.55-4.31L101.55-4.31Q101.73-8.63 105.58-8.81L105.58-8.81Q108.63-8.72 109.09-6.05ZM119.72-6.05L119.72-6.05L118.59-6.05Q118.17-7.78 116.20-7.83L116.20-7.83Q113.48-7.69 113.39-4.36L113.39-4.36Q113.39-0.80 116.25-0.80L116.25-0.80Q118.22-0.84 118.69-3.19L118.69-3.19L119.81-3.19Q119.30 0.05 116.02 0.14L116.02 0.14Q112.27 0 112.17-4.31L112.17-4.31Q112.36-8.63 116.20-8.81L116.20-8.81Q119.25-8.72 119.72-6.05ZM124.48-1.03L129.64-1.03L129.64 0L123.31 0L123.31-8.58L129.55-8.58L129.55-7.59L124.48-7.59L124.48-4.92L129.17-4.92L129.17-3.89L124.48-3.89L124.48-1.03ZM139.42-6.09L139.42-6.09L138.34-6.09Q138.25-7.73 136.19-7.83L136.19-7.83Q134.27-7.78 134.27-6.33L134.27-6.33Q134.27-5.39 135.30-5.25L135.30-5.25L137.73-4.69Q139.66-4.22 139.66-2.34L139.66-2.34Q139.61 0.05 136.28 0.14L136.28 0.14Q134.45 0.14 133.70-0.61L133.70-0.61Q132.77-1.31 132.81-2.77L132.81-2.77L133.94-2.77Q133.98-0.80 136.28-0.75L136.28-0.75Q138.53-0.80 138.58-2.20L138.58-2.20Q138.77-3.38 136.70-3.75L136.70-3.75L134.92-4.13Q133.09-4.64 133.09-6.19L133.09-6.19Q133.23-8.72 136.09-8.81L136.09-8.81Q139.33-8.81 139.42-6.09ZM149.39-6.09L149.39-6.09L148.31-6.09Q148.22-7.73 146.16-7.83L146.16-7.83Q144.23-7.78 144.23-6.33L144.23-6.33Q144.23-5.39 145.27-5.25L145.27-5.25L147.70-4.69Q149.63-4.22 149.63-2.34L149.63-2.34Q149.58 0.05 146.25 0.14L146.25 0.14Q144.42 0.14 143.67-0.61L143.67-0.61Q142.73-1.31 142.78-2.77L142.78-2.77L143.91-2.77Q143.95-0.80 146.25-0.75L146.25-0.75Q148.50-0.80 148.55-2.20L148.55-2.20Q148.73-3.38 146.67-3.75L146.67-3.75L144.89-4.13Q143.06-4.64 143.06-6.19L143.06-6.19Q143.20-8.72 146.06-8.81L146.06-8.81Q149.30-8.81 149.39-6.09ZM165.58-6.05L165.58-6.05L164.45-6.05Q164.03-7.78 162.06-7.83L162.06-7.83Q159.34-7.69 159.25-4.36L159.25-4.36Q159.25-0.80 162.11-0.80L162.11-0.80Q164.08-0.84 164.55-3.19L164.55-3.19L165.67-3.19Q165.16 0.05 161.88 0.14L161.88 0.14Q158.13 0 158.03-4.31L158.03-4.31Q158.22-8.63 162.06-8.81L162.06-8.81Q165.11-8.72 165.58-6.05ZM174.70 0L173.86-2.48L170.39-2.48L169.50 0L168.33 0L171.56-8.58L172.88-8.58L175.97 0L174.70 0ZM172.13-7.31L170.77-3.52L173.44-3.52L172.17-7.31L172.13-7.31ZM183.13-3.70L180.31-3.70L180.31 0L179.14 0L179.14-8.58L183.13-8.58Q185.98-8.58 185.98-6.28L185.98-6.28Q185.98-4.88 184.77-4.22L184.77-4.22Q185.80-3.94 185.80-2.58L185.80-2.58L185.89-1.03Q185.84-0.38 186.31-0.19L186.31-0.19L186.31 0L184.86 0Q184.72-0.61 184.67-2.16L184.67-2.16Q184.72-3.70 183.13-3.70L183.13-3.70ZM183.22-7.64L180.31-7.64L180.31-4.69L183.03-4.69Q184.77-4.69 184.77-6.19L184.77-6.19Q184.77-7.64 183.22-7.64L183.22-7.64ZM193.14 0L189.67 0L189.67-8.58L193.19-8.58Q196.66-8.39 196.80-4.41L196.80-4.41Q196.61-0.09 193.14 0L193.14 0ZM193-7.64L190.84-7.64L190.84-0.98L193.09-0.98Q195.53-1.13 195.63-4.31L195.63-4.31Q195.58-7.55 193-7.64L193-7.64Z" transform="translate(-0.9375, 8.8125)"></path>
                            </g>
                        </g>
                    </g>
                </g>
            </g>
        </g>
    </g>
    <mask id="b7f1ea27-398b-41a7-b352-2daee20d4325">
        <g fill="white">
            <rect data-gra="graph-name-bg" stroke-width="2" class="i-icon-bg" x="0" y="0" width="205.86000061035156" height="12.95000171661377" fill-opacity="1"></rect>
        </g>
        <g transform="translate(5,2)" fill="black">
            <g transform="scale(1, 1)">
                <g transform="scale(1)">
                    <path d="M6.56-3.19L6.56-8.58L7.73-8.58L7.73-3.05Q7.59 0.05 4.22 0.14L4.22 0.14Q1.08 0.05 0.94-2.86L0.94-2.86L0.94-8.58L2.11-8.58L2.11-3.19Q2.16-0.84 4.27-0.80L4.27-0.80Q6.56-0.84 6.56-3.19L6.56-3.19ZM12.92-8.58L17.23-1.64L17.23-8.58L18.36-8.58L18.36 0L17.05 0L12.69-6.94L12.64-6.94L12.64 0L11.52 0L11.52-8.58L12.92-8.58ZM22.33-8.58L23.50-8.58L23.50 0L22.33 0L22.33-8.58ZM28.13-8.58L30.56-1.27L33.05-8.58L34.36-8.58L31.22 0L29.95 0L26.81-8.58L28.13-8.58ZM38.75-1.03L43.91-1.03L43.91 0L37.58 0L37.58-8.58L43.81-8.58L43.81-7.59L38.75-7.59L38.75-4.92L43.44-4.92L43.44-3.89L38.75-3.89L38.75-1.03ZM51.53-3.70L48.72-3.70L48.72 0L47.55 0L47.55-8.58L51.53-8.58Q54.39-8.58 54.39-6.28L54.39-6.28Q54.39-4.88 53.17-4.22L53.17-4.22Q54.20-3.94 54.20-2.58L54.20-2.58L54.30-1.03Q54.25-0.38 54.72-0.19L54.72-0.19L54.72 0L53.27 0Q53.13-0.61 53.08-2.16L53.08-2.16Q53.13-3.70 51.53-3.70L51.53-3.70ZM51.63-7.64L48.72-7.64L48.72-4.69L51.44-4.69Q53.17-4.69 53.17-6.19L53.17-6.19Q53.17-7.64 51.63-7.64L51.63-7.64ZM64.31-6.09L64.31-6.09L63.23-6.09Q63.14-7.73 61.08-7.83L61.08-7.83Q59.16-7.78 59.16-6.33L59.16-6.33Q59.16-5.39 60.19-5.25L60.19-5.25L62.63-4.69Q64.55-4.22 64.55-2.34L64.55-2.34Q64.50 0.05 61.17 0.14L61.17 0.14Q59.34 0.14 58.59-0.61L58.59-0.61Q57.66-1.31 57.70-2.77L57.70-2.77L58.83-2.77Q58.88-0.80 61.17-0.75L61.17-0.75Q63.42-0.80 63.47-2.20L63.47-2.20Q63.66-3.38 61.59-3.75L61.59-3.75L59.81-4.13Q57.98-4.64 57.98-6.19L57.98-6.19Q58.13-8.72 60.98-8.81L60.98-8.81Q64.22-8.81 64.31-6.09ZM73.67 0L72.83-2.48L69.36-2.48L68.47 0L67.30 0L70.53-8.58L71.84-8.58L74.94 0L73.67 0ZM71.09-7.31L69.73-3.52L72.41-3.52L71.14-7.31L71.09-7.31ZM77.97-8.58L79.14-8.58L79.14-1.03L83.50-1.03L83.50 0L77.97 0L77.97-8.58ZM97.63 0L96.78-2.48L93.31-2.48L92.42 0L91.25 0L94.48-8.58L95.80-8.58L98.89 0L97.63 0ZM95.05-7.31L93.69-3.52L96.36-3.52L95.09-7.31L95.05-7.31ZM109.09-6.05L109.09-6.05L107.97-6.05Q107.55-7.78 105.58-7.83L105.58-7.83Q102.86-7.69 102.77-4.36L102.77-4.36Q102.77-0.80 105.63-0.80L105.63-0.80Q107.59-0.84 108.06-3.19L108.06-3.19L109.19-3.19Q108.67 0.05 105.39 0.14L105.39 0.14Q101.64 0 101.55-4.31L101.55-4.31Q101.73-8.63 105.58-8.81L105.58-8.81Q108.63-8.72 109.09-6.05ZM119.72-6.05L119.72-6.05L118.59-6.05Q118.17-7.78 116.20-7.83L116.20-7.83Q113.48-7.69 113.39-4.36L113.39-4.36Q113.39-0.80 116.25-0.80L116.25-0.80Q118.22-0.84 118.69-3.19L118.69-3.19L119.81-3.19Q119.30 0.05 116.02 0.14L116.02 0.14Q112.27 0 112.17-4.31L112.17-4.31Q112.36-8.63 116.20-8.81L116.20-8.81Q119.25-8.72 119.72-6.05ZM124.48-1.03L129.64-1.03L129.64 0L123.31 0L123.31-8.58L129.55-8.58L129.55-7.59L124.48-7.59L124.48-4.92L129.17-4.92L129.17-3.89L124.48-3.89L124.48-1.03ZM139.42-6.09L139.42-6.09L138.34-6.09Q138.25-7.73 136.19-7.83L136.19-7.83Q134.27-7.78 134.27-6.33L134.27-6.33Q134.27-5.39 135.30-5.25L135.30-5.25L137.73-4.69Q139.66-4.22 139.66-2.34L139.66-2.34Q139.61 0.05 136.28 0.14L136.28 0.14Q134.45 0.14 133.70-0.61L133.70-0.61Q132.77-1.31 132.81-2.77L132.81-2.77L133.94-2.77Q133.98-0.80 136.28-0.75L136.28-0.75Q138.53-0.80 138.58-2.20L138.58-2.20Q138.77-3.38 136.70-3.75L136.70-3.75L134.92-4.13Q133.09-4.64 133.09-6.19L133.09-6.19Q133.23-8.72 136.09-8.81L136.09-8.81Q139.33-8.81 139.42-6.09ZM149.39-6.09L149.39-6.09L148.31-6.09Q148.22-7.73 146.16-7.83L146.16-7.83Q144.23-7.78 144.23-6.33L144.23-6.33Q144.23-5.39 145.27-5.25L145.27-5.25L147.70-4.69Q149.63-4.22 149.63-2.34L149.63-2.34Q149.58 0.05 146.25 0.14L146.25 0.14Q144.42 0.14 143.67-0.61L143.67-0.61Q142.73-1.31 142.78-2.77L142.78-2.77L143.91-2.77Q143.95-0.80 146.25-0.75L146.25-0.75Q148.50-0.80 148.55-2.20L148.55-2.20Q148.73-3.38 146.67-3.75L146.67-3.75L144.89-4.13Q143.06-4.64 143.06-6.19L143.06-6.19Q143.20-8.72 146.06-8.81L146.06-8.81Q149.30-8.81 149.39-6.09ZM165.58-6.05L165.58-6.05L164.45-6.05Q164.03-7.78 162.06-7.83L162.06-7.83Q159.34-7.69 159.25-4.36L159.25-4.36Q159.25-0.80 162.11-0.80L162.11-0.80Q164.08-0.84 164.55-3.19L164.55-3.19L165.67-3.19Q165.16 0.05 161.88 0.14L161.88 0.14Q158.13 0 158.03-4.31L158.03-4.31Q158.22-8.63 162.06-8.81L162.06-8.81Q165.11-8.72 165.58-6.05ZM174.70 0L173.86-2.48L170.39-2.48L169.50 0L168.33 0L171.56-8.58L172.88-8.58L175.97 0L174.70 0ZM172.13-7.31L170.77-3.52L173.44-3.52L172.17-7.31L172.13-7.31ZM183.13-3.70L180.31-3.70L180.31 0L179.14 0L179.14-8.58L183.13-8.58Q185.98-8.58 185.98-6.28L185.98-6.28Q185.98-4.88 184.77-4.22L184.77-4.22Q185.80-3.94 185.80-2.58L185.80-2.58L185.89-1.03Q185.84-0.38 186.31-0.19L186.31-0.19L186.31 0L184.86 0Q184.72-0.61 184.67-2.16L184.67-2.16Q184.72-3.70 183.13-3.70L183.13-3.70ZM183.22-7.64L180.31-7.64L180.31-4.69L183.03-4.69Q184.77-4.69 184.77-6.19L184.77-6.19Q184.77-7.64 183.22-7.64L183.22-7.64ZM193.14 0L189.67 0L189.67-8.58L193.19-8.58Q196.66-8.39 196.80-4.41L196.80-4.41Q196.61-0.09 193.14 0L193.14 0ZM193-7.64L190.84-7.64L190.84-0.98L193.09-0.98Q195.53-1.13 195.63-4.31L195.63-4.31Q195.58-7.55 193-7.64L193-7.64Z" transform="translate(-0.9375, 8.8125)"></path>
                </g>
            </g>
        </g>
    </mask>
    <defs v-gra="od">
        <linearGradient x1="0" y1="1" x2="0" y2="0" id="99de4d60-5e0b-48f7-a651-8a85e3aa64fe">
            <stop offset="0%" stop-color="#091f3f"></stop>
            <stop offset="100%" stop-color="#527895"></stop>
        </linearGradient>
        <filter id="42443b3f1de60f6b6fd3b6a9844b4764" filterUnits="objectBoundingBox">
            <feColorMatrix type="matrix" values="0 0 0 0 0.99609375  0 0 0 0 0.99609375  0 0 0 0 0.99609375  0 0 0 1 0"></feColorMatrix>
        </filter>
        <linearGradient x1="0" y1="1" x2="0" y2="0" id="809346b1-c8f5-4dc0-8a7a-fb2d16f67c7b">
            <stop offset="0%" stop-color="#091f3f"></stop>
            <stop offset="100%" stop-color="#527895"></stop>
        </linearGradient>
        <filter id="42443b3f1de60f6b6fd3b6a9844b4764" filterUnits="objectBoundingBox">
            <feColorMatrix type="matrix" values="0 0 0 0 0.99609375  0 0 0 0 0.99609375  0 0 0 0 0.99609375  0 0 0 1 0"></feColorMatrix>
        </filter>
    </defs>
    <defs v-gra="id">
        <filter id="1494e74c-711d-4c50-b1c9-3542c0bd7f5d" filterUnits="userSpaceOnUse">
            <feColorMatrix type="matrix" values="0 0 0 0 0.99609375  0 0 0 0 0.99609375  0 0 0 0 0.99609375  0 0 0 1 0"></feColorMatrix>
        </filter>
        <linearGradient x1="0" y1="1" x2="0" y2="0" id="LsX87gDv0vdahFRJfVonI">
            <stop offset="0%" stop-color="#091f3f"></stop>
            <stop offset="100%" stop-color="#527895"></stop>
        </linearGradient>
        <filter id="42443b3f1de60f6b6fd3b6a9844b4764" filterUnits="objectBoundingBox">
            <feColorMatrix type="matrix" values="0 0 0 0 0.99609375  0 0 0 0 0.99609375  0 0 0 0 0.99609375  0 0 0 1 0"></feColorMatrix>
        </filter>
    </defs>
    <mask v-gra="im" id="cad72ffa-ae18-418a-ae20-4ca4cabfc313">
        <g class="iconsvg-imagesvg" filter="url(#1494e74c-711d-4c50-b1c9-3542c0bd7f5d)">
            <g>
                <rect fill="#333" fill-opacity="0" stroke-width="2" x="0" y="0" width="60" height="54.7910179257947" class="image-rect"></rect>
                <svg x="0" y="0" width="60" height="54.7910179257947" filtersec="colorsb1135505531" class="image-svg-svg primary" style="overflow: visible;">
                    <svg
                        xmlns="http://www.w3.org/2000/svg" viewBox="12.175359725952148 8.73588752746582 1848.0164794921875 1687.57666015625" preserveAspectRatio="none" display="block">
                        <path fill="#44D9E6" d="M 963.968 9.4098 C 997.201 6.31293 1033.81 14.0857 1063.58 28.6894 C 1141.77 67.0441 1163.55 142.277 1192.43 217.841 C 1212.63 270.706 1231.7 326.684 1252.52 379.771 C 1264.09 408.088 1275.69 446.278 1297.14 468.607 C 1333.77 505.278 1397.5 501.956 1445.68 508.65 C 1491.81 513.041 1536.33 520.053 1582.68 523.278 C 1710.52 532.172 1862.72 553.563 1860.16 718.735 C 1858.64 816.222 1784.69 862.452 1714.37 917.992 C 1692.27 935.686 1670.05 953.228 1647.7 970.615 C 1629.88 984.26 1608.34 997.894 1592.02 1012.48 C 1553.4 1047.03 1486.84 1080.35 1492.14 1140.65 C 1494.4 1166.37 1500.4 1192.16 1505.11 1216.92 L 1536.21 1375.93 C 1551.86 1456.92 1574.72 1541.59 1527.72 1617 C 1503.55 1655.57 1464.8 1682.71 1420.29 1692.25 C 1329.75 1712.34 1250.63 1653.8 1179.46 1606.97 C 1124.9 1571.06 1071.3 1533.22 1016.86 1497.19 C 980.314 1472.99 950.649 1458.72 905.759 1468.63 C 875.468 1475.99 842.116 1497.71 814.605 1513.84 L 697.776 1582.38 C 634.481 1619.67 577.623 1660.48 502.492 1668.05 C 455.053 1672.43 407.786 1658.05 370.827 1627.99 C 331.895 1596.11 302.767 1538.2 304.708 1486.63 C 306.906 1428.25 330.707 1363.76 345.609 1307.38 C 357.974 1260.6 372.403 1213.55 384.308 1166.52 C 419.203 1049.59 409.574 1041.98 323.703 964.121 C 283.512 927.771 242.542 892.291 200.821 857.706 C 166.041 829.29 129.023 801.195 94.5617 773.092 C 51.6063 736.387 17.7971 699.227 12.8761 640.498 C 5.90281 557.276 51.3803 491.57 131.177 468.431 C 145.321 464.329 162.099 464.04 176.906 463.063 C 202.795 461.133 228.747 460.166 254.709 460.164 L 466.523 460.106 L 533.52 460.214 C 549.015 460.219 564.037 460.083 579.369 459.329 C 666.064 455.175 685.088 381.957 715.376 316.06 C 735.35 270.616 757.312 225.828 777.54 180.534 C 815.796 94.8753 859.585 18.6832 963.968 9.4098 z M 940.357 1226.05 C 1006.17 1233.87 1034.63 1257.01 1088.38 1293.99 C 1124.17 1318.62 1158.3 1344.7 1193.48 1370.17 C 1210.45 1382.44 1234.06 1400.3 1252.78 1408.54 C 1266.5 1414.58 1294.04 1412.98 1305.8 1402.8 C 1316.31 1393.7 1322.05 1384.1 1323.61 1370.04 C 1326.61 1344.97 1318.86 1321.51 1314.62 1297.18 C 1306.95 1253.15 1296.84 1209.58 1288.68 1165.63 C 1284.31 1144.84 1280.83 1123.85 1278.4 1102.74 C 1277.27 1092.84 1275.1 1081.28 1275.35 1071.45 C 1276.41 1031.06 1291.05 992.03 1320.3 963.508 C 1326.65 957.314 1332.92 951.542 1339.79 945.952 C 1363.71 926.491 1388.26 908.074 1413.43 890.279 C 1434.91 873.643 1457.11 857.009 1478.25 840.027 C 1495.72 825.986 1515.76 814.069 1530.04 796.656 C 1543.98 779.659 1548.19 753.189 1532.61 735.969 C 1528.07 730.945 1523.01 725.55 1516.5 722.842 C 1488.61 712.612 1454.72 711.707 1425.13 708.475 C 1408.96 706.71 1390.46 703.895 1374.96 702.836 C 1338.16 700.323 1302.79 697.159 1266.29 691.737 C 1240.54 687.912 1218.6 687.194 1194.18 676.099 C 1172.52 666.26 1154.8 651.341 1139.47 633.312 C 1116.37 606.142 1105.2 568.19 1092.56 535.063 C 1075.91 490.661 1062.45 445.127 1045.9 400.69 C 1037.7 378.699 1030.53 353.674 1017.45 334.014 C 1005.51 316.068 988.89 308.881 967.858 311.281 C 942.766 317.374 934.102 330.269 923.111 353.169 C 910.659 379.116 899.297 405.62 887.871 432.027 C 872.173 467.669 855.942 503.074 839.184 538.23 C 827.95 561.953 815.47 589.734 798.798 610.236 C 752.269 667.451 682.472 661.718 615.788 661.755 L 495.821 661.761 C 450.724 661.742 363.908 654.812 379.105 725.296 C 385.114 753.17 435.649 789.314 457.283 807.685 C 476.599 824.088 495.488 840.808 514.64 857.385 C 545.359 884.032 581.973 911.809 604.45 945.929 C 618.119 966.554 626.505 990.225 628.867 1014.85 C 633.403 1065.86 607.272 1126.85 594.47 1176.16 C 586.302 1205.61 576.146 1236.05 567.721 1265.31 C 557.359 1301.29 527.65 1361.5 570.027 1387.95 C 601.367 1407.51 641.491 1376.46 667.318 1361.43 C 696.557 1344.53 725.538 1327.19 754.251 1309.41 C 806.935 1276.7 877.401 1225.81 940.357 1226.05 z"></path>
                        <path fill="#44D9E6" d="M 962.703 657.387 C 969.202 657.88 974.418 659.878 979.3 664.302 C 994.117 677.728 1018.02 742.337 1027.6 764.077 C 1032.23 774.594 1036.42 786.849 1044.92 794.965 C 1056.35 805.866 1076.29 807.526 1091.1 810.55 C 1107.31 813.863 1123.43 817.678 1139.69 820.751 C 1155.83 823.801 1173.09 825.508 1188.55 831.098 C 1193.92 833.04 1199.25 835.867 1203.16 840.109 C 1206.77 844.02 1208.82 848.96 1208.34 854.313 C 1206.51 874.826 1158 910.197 1141.4 924.517 C 1129.71 934.61 1108.78 950.167 1101.8 963.907 C 1087.58 991.917 1121.29 1082.24 1118.15 1118.93 C 1117.53 1126.21 1114.56 1133.72 1108.73 1138.36 C 1104.59 1141.65 1099.19 1142.88 1093.99 1142.2 C 1078.69 1140.18 1063.77 1129.61 1050.91 1121.66 C 1029.64 1108.52 975.008 1071.89 952.376 1069.71 C 951.986 1069.67 951.594 1069.65 951.203 1069.61 C 934.128 1070.96 920.222 1079.52 905.3 1087.18 C 883.163 1098.54 840.773 1122.98 818.128 1129.05 C 808.247 1131.7 795.472 1132.61 786.45 1126.93 C 762.46 1111.84 810.021 990.912 806.217 961.601 C 801.81 927.64 706.778 873.663 701.716 841.894 C 700.673 835.348 702.369 828.123 706.551 822.912 C 720.263 805.828 772.741 807.667 793.81 805.495 C 812.744 803.543 847.671 801.757 864.49 794.164 C 870.378 791.506 875.144 786.949 879.052 781.892 C 888.008 770.3 894.153 756.053 901.013 743.176 C 908.064 729.943 915.673 716.984 922.449 703.608 C 928.401 691.857 933.641 678.84 942.089 668.627 C 948.033 661.44 953.48 658.342 962.703 657.387 z"></path>
                    </svg>
                </svg>
                <!---->
            </g>
        </g>
    </mask>
</svg>